<svg id="Logo_Koyu_Zemin" data-name="Logo Koyu Zemin" xmlns="http://www.w3.org/2000/svg" width="764" height="219" viewBox="0 0 764 219">
  <defs>
    <style>
      .cls-1, .cls-3 {
        fill: #ff847f;
      }

      .cls-1, .cls-2, .cls-5, .cls-6 {
        fill-rule: evenodd;
      }

      .cls-2, .cls-4 {
        fill: #fff;
      }

      .cls-4 {
        font-size: 97.5px;
        font-family: Rubik;
        font-weight: 700;
      }

      .cls-5 {
        fill: #6c55d7;
      }

      .cls-6 {
        fill: #4e1c99;
      }
    </style>
  </defs>
  <path class="cls-1" d="M75.064,612.284l43.768-43.208v43.768L75.064,656.052V612.284Z"/>
  <path class="cls-2" d="M75.064,675.31v50.333s-1.8,12.146-13.131,16.194-16.094,1.8-24.072-4.377C35.68,739.66,7.224,768.1,7.224,768.1s17.222,19.783,45.081,19.7c17.233-1.161,33.855-4.019,51.646-24.073,8.648-12.768,12.4-17.177,14.881-39.829-0.09-19.652,0-92.35,0-92.35L75.94,674.435"/>
  <circle class="cls-3" cx="36.703" cy="707.938" r="16.297"/>
  <text id="etstok" class="cls-4" transform="translate(132.954 751.396) scale(2.001)">etstok</text>
  <path id="Rectangle_1_copy" data-name="Rectangle 1 copy" class="cls-5" d="M75.064,1246.28l43.768-43.2v43.76l-43.768,43.21v-43.77Z"/>
  <path id="Shape_1_copy" data-name="Shape 1 copy" class="cls-2" d="M75.064,1309.31v50.33s-1.8,12.15-13.131,16.2-16.094,1.79-24.072-4.38c-2.182,2.2-30.638,30.64-30.638,30.64s17.222,19.78,45.081,19.69c17.233-1.16,33.855-4.01,51.646-24.07,8.648-12.77,12.4-17.18,14.881-39.83-0.09-19.65,0-92.35,0-92.35L75.94,1308.43"/>
  <circle id="Ellipse_1_copy" data-name="Ellipse 1 copy" class="cls-3" cx="36.703" cy="1341.94" r="16.297"/>
  <text id="etstok_copy" data-name="etstok copy" class="cls-4" transform="translate(132.954 1385.396) scale(2.001)">etstok</text>
  <path class="cls-5" d="M68.064,43.284L111.832,0.076V43.844L68.064,87.052V43.284Z"/>
  <path class="cls-6" d="M68.064,106.31v50.333s-1.8,12.146-13.131,16.194-16.094,1.8-24.072-4.377C28.68,170.66.224,199.1,0.224,199.1s17.222,19.783,45.081,19.7c17.233-1.161,33.855-4.019,51.646-24.073,8.648-12.768,12.4-17.177,14.881-39.829-0.09-19.652,0-92.35,0-92.35L68.94,105.435"/>
  <circle class="cls-3" cx="30.703" cy="143.938" r="16.297"/>
  <path id="etstok-2" data-name="etstok" class="cls-6" d="M205.16,181.421a49.346,49.346,0,0,0,14.924-7.511,40.267,40.267,0,0,0,9.072-9.267q3.117-4.681,3.316-8a3.539,3.539,0,0,0-1.073-3.122,4.568,4.568,0,0,0-3.219-1.17H203.989a8.815,8.815,0,0,0-3.414.488,9.667,9.667,0,0,0-2.829,2.633,34.169,34.169,0,0,1-2.731,2.829,17.139,17.139,0,0,1-4.39,2.926,14.973,14.973,0,0,1-6.535,1.268,14.269,14.269,0,0,1-8.877-2.731,16.77,16.77,0,0,1-5.462-7.413,30.67,30.67,0,0,1-2.049-10.34v-1.366h62.429a4.676,4.676,0,0,0,4.877-4.877v-4.682a60.7,60.7,0,0,0-5.657-26.727,43.434,43.434,0,0,0-16.876-18.534Q201.255,79,184.09,79q-15.025,0-26.24,5.755a41.978,41.978,0,0,0-17.558,16.778q-6.342,11.023-6.925,26.435v6.828q0.585,24.581,14.241,37.067t36.677,12.485A67.427,67.427,0,0,0,205.16,181.421ZM167.7,120.943a28.071,28.071,0,0,1,1.951-11.022,15.936,15.936,0,0,1,5.658-7.121,15.168,15.168,0,0,1,8.779-2.536,15.989,15.989,0,0,1,9.072,2.536,15.132,15.132,0,0,1,5.657,7.121,29.4,29.4,0,0,1,1.853,11.022v0.391H167.7v-0.391ZM323.189,182.4a4.591,4.591,0,0,0,3.512-1.464,4.853,4.853,0,0,0,1.365-3.414V160.547a4.677,4.677,0,0,0-4.877-4.878H308.167q-6.049,0-8.584-3.9t-2.536-10.535V106.507h24.386a5.083,5.083,0,0,0,3.609-1.366,4.58,4.58,0,0,0,1.464-3.511v-15.8a4.59,4.59,0,0,0-1.464-3.512,5.1,5.1,0,0,0-3.609-1.366H297.047V48.76a4.678,4.678,0,0,0-4.877-4.877H269.539a4.855,4.855,0,0,0-3.414,1.366,4.592,4.592,0,0,0-1.463,3.512V80.95H249.445a5.1,5.1,0,0,0-3.609,1.366,4.593,4.593,0,0,0-1.463,3.512v15.8a4.583,4.583,0,0,0,1.463,3.511,5.082,5.082,0,0,0,3.609,1.366h15.217v37.457q0,13.461,4.877,21.948A29.29,29.29,0,0,0,283.488,178.4q9.072,4,21.558,4h18.143Zm89.448-2.049q10.827-4,16.485-11.218a26.14,26.14,0,0,0,5.657-16.582,27.82,27.82,0,0,0-3.414-13.364q-3.415-6.338-11.413-11.12t-21.459-6.925a136.1,136.1,0,0,1-16.095-3.9q-5.172-1.756-6.828-3.9a7.482,7.482,0,0,1-1.659-4.682,7.4,7.4,0,0,1,2.927-6.048q2.926-2.342,8.193-2.341a17.382,17.382,0,0,1,7.8,1.561,28.394,28.394,0,0,1,5.462,3.511,24.4,24.4,0,0,0,4.683,3.122,6.611,6.611,0,0,0,1.365.683,4.408,4.408,0,0,0,1.561.292H426.2a4.518,4.518,0,0,0,4.292-4.877,15.854,15.854,0,0,0-3.121-7.8,35.272,35.272,0,0,0-8.584-8.389,48.726,48.726,0,0,0-14.047-6.731A65.264,65.264,0,0,0,385.226,79q-14.439,0-24.191,4.585t-14.826,11.8a25.761,25.761,0,0,0-5.073,15.022,26.3,26.3,0,0,0,4.1,14.924,29.539,29.539,0,0,0,11.706,9.949,79.787,79.787,0,0,0,17.753,6.146,106.357,106.357,0,0,1,16.095,3.9q5.363,1.951,7.12,4a7.666,7.666,0,0,1,1.756,5.17,7.038,7.038,0,0,1-3.707,6.34,17.413,17.413,0,0,1-9.169,2.244,18.625,18.625,0,0,1-8-1.561,28.6,28.6,0,0,1-5.853-3.609,33.245,33.245,0,0,0-5.072-3.414,3.468,3.468,0,0,0-1.073-.781,2.913,2.913,0,0,0-1.073-.195H343.477a4.977,4.977,0,0,0-3.316,1.366A3.931,3.931,0,0,0,338.8,158.4a17.046,17.046,0,0,0,2.927,7.706,31.664,31.664,0,0,0,8.291,8.486,49.707,49.707,0,0,0,14.436,6.926q8.875,2.824,21.558,2.828Q401.809,184.347,412.637,180.348ZM521.788,182.4a4.591,4.591,0,0,0,3.512-1.464,4.853,4.853,0,0,0,1.365-3.414V160.547a4.677,4.677,0,0,0-4.877-4.878H506.766q-6.05,0-8.584-3.9t-2.536-10.535V106.507h24.386a5.083,5.083,0,0,0,3.609-1.366,4.58,4.58,0,0,0,1.464-3.511v-15.8a4.59,4.59,0,0,0-1.464-3.512,5.1,5.1,0,0,0-3.609-1.366H495.646V48.76a4.678,4.678,0,0,0-4.877-4.877H468.138a4.855,4.855,0,0,0-3.414,1.366,4.592,4.592,0,0,0-1.463,3.512V80.95H448.044a5.1,5.1,0,0,0-3.609,1.366,4.593,4.593,0,0,0-1.463,3.512v15.8a4.583,4.583,0,0,0,1.463,3.511,5.082,5.082,0,0,0,3.609,1.366h15.217v37.457q0,13.461,4.877,21.948A29.29,29.29,0,0,0,482.087,178.4q9.072,4,21.558,4h18.143Zm96.861-3.317a38.668,38.668,0,0,0,17.168-15.119q5.949-9.849,6.73-23.509,0.192-3.9.195-8.876t-0.195-8.682q-0.782-13.85-7.023-23.606a40.758,40.758,0,0,0-17.46-15.022Q606.843,79,590.849,79q-15.8,0-27.02,5.267a40.72,40.72,0,0,0-17.461,15.022q-6.246,9.758-7.023,23.606-0.2,3.708-.2,8.682t0.2,8.876q0.777,13.659,6.731,23.509a38.631,38.631,0,0,0,17.168,15.119q11.215,5.268,27.605,5.267Q607.429,184.347,618.649,179.08Zm-40.384-23.8q-4.2-5.267-4.584-15.8-0.2-2.927-.2-7.8t0.2-7.8q0.389-10.338,4.584-15.7t12.584-5.365q8.778,0,12.778,5.365t4.585,15.7q0.192,2.926.2,7.8t-0.2,7.8q-0.586,10.535-4.585,15.8t-12.778,5.268Q582.458,160.547,578.265,155.279Zm111.3,27.118a5,5,0,0,0,4.878-4.878V142.013l30.824,37.067a27.942,27.942,0,0,0,2.536,2.244,6.931,6.931,0,0,0,4.292,1.073h26.727a4.166,4.166,0,0,0,2.926-7.414l-39.993-48.577,35.116-37.847A2.7,2.7,0,0,0,758.136,87a6.172,6.172,0,0,0,.293-1.756,4.33,4.33,0,0,0-4.292-4.292H728a6.652,6.652,0,0,0-3.9.975,14.384,14.384,0,0,0-2.536,2.341L694.44,114.115V48.76a4.59,4.59,0,0,0-1.464-3.512,4.857,4.857,0,0,0-3.414-1.366h-22.63a4.677,4.677,0,0,0-4.877,4.877V177.519a4.84,4.84,0,0,0,1.365,3.414,4.582,4.582,0,0,0,3.512,1.464h22.63Z"/>
</svg>
