<?xml version="1.0" encoding="UTF-8"?>
<svg width="52px" height="52px" viewBox="0 0 52 52" version="1.1" xmlns="http://www.w3.org/2000/svg" xmlns:xlink="http://www.w3.org/1999/xlink">
    <!-- Generator: Sketch 64 (93537) - https://sketch.com -->
    <title>amazon</title>
    <desc>Created with Sketch.</desc>
    <defs>
        <rect id="path-1" x="0" y="0" width="44" height="44" rx="22"></rect>
        <filter x="-17.0%" y="-10.2%" width="134.1%" height="134.1%" filterUnits="objectBoundingBox" id="filter-2">
            <feOffset dx="0" dy="3" in="SourceAlpha" result="shadowOffsetOuter1"></feOffset>
            <feGaussianBlur stdDeviation="2" in="shadowOffsetOuter1" result="shadowBlurOuter1"></feGaussianBlur>
            <feColorMatrix values="0 0 0 0 0   0 0 0 0 0   0 0 0 0 0  0 0 0 0.105868253 0" type="matrix" in="shadowBlurOuter1"></feColorMatrix>
        </filter>
    </defs>
    <g id="Page-1" stroke="none" stroke-width="1" fill="none" fill-rule="evenodd">
        <g id="Artboard" transform="translate(-37.000000, -2837.000000)">
            <g id="Platform-Logo-Setleri-Vector" transform="translate(41.000000, 2090.000000)">
                <g id="amazon" transform="translate(0.000000, 748.000000)">
                    <g id="Rectangle">
                        <use fill="black" fill-opacity="1" filter="url(#filter-2)" xlink:href="#path-1"></use>
                        <use fill="#FFFFFF" fill-rule="evenodd" xlink:href="#path-1"></use>
                    </g>
                    <g id="Amazon_icon" transform="translate(8.000000, 9.000000)" fill-rule="nonzero">
                        <path d="M23.5745187,22.7964077 C12.1684026,28.2247587 5.08964129,23.6830142 0.558301935,20.9244542 C0.277904516,20.7506013 -0.198673548,20.9650994 0.214823226,21.4400516 C1.72443871,23.2704929 6.67176774,27.6823897 13.129471,27.6823897 C19.5916181,27.6823897 23.436,24.1563406 23.9169135,23.5412439 C24.3945755,22.9313497 24.0571665,22.5949161 23.5744103,22.7964077 L23.5745187,22.7964077 Z M26.7778994,21.0273135 C26.4715974,20.628449 24.9153755,20.5540955 23.9359897,20.6744052 C22.9550865,20.7912465 21.4827561,21.3907355 21.6107613,21.750689 C21.6764439,21.8855226 21.8105187,21.8250426 22.4843613,21.7644542 C23.1600465,21.6970374 25.0529187,21.4581523 25.4473394,21.9737497 C25.8436026,22.4929239 24.8436232,24.9661006 24.660991,25.3649652 C24.4845368,25.7638297 24.7284077,25.866689 25.0598555,25.6010323 C25.386751,25.3354839 25.9785445,24.6477677 26.3756748,23.67456 C26.7700955,22.6960413 27.0106065,21.3310142 26.777791,21.0273135 L26.7778994,21.0273135 Z" id="Shape" fill="#FF9900"></path>
                        <path d="M15.9051561,11.7198968 C15.9051561,13.1442116 15.9411406,14.3320258 15.2212335,15.5969032 C14.6401703,16.6253884 13.7197471,17.2578271 12.6913703,17.2578271 C11.2875406,17.2578271 10.4699768,16.1882632 10.4699768,14.6097135 C10.4699768,11.4935845 13.2620284,10.9280206 15.9051561,10.9280206 L15.9051561,11.7198968 Z M19.5919432,20.6310503 C19.35024,20.8469574 19.0005832,20.8624568 18.7280981,20.7184103 C17.5145961,19.7106271 17.2985806,19.24272 16.6301574,18.2811097 C14.6247794,20.3276748 13.2055587,20.93952 10.6037265,20.93952 C7.52878452,20.93952 5.13256258,19.0420955 5.13256258,15.2421523 C5.13256258,12.2752723 6.74211097,10.2543948 9.03016258,9.26720516 C11.0150555,8.39295484 13.7866219,8.23872 15.9051561,7.99712516 L15.9051561,7.52401548 C15.9051561,6.65496774 15.9719226,5.62659097 15.4629368,4.87590194 C15.0155148,4.20227613 14.1619665,3.92458839 13.411169,3.92458839 C12.0177445,3.92458839 10.7733523,4.6392929 10.4699768,6.12018581 C10.4081961,6.44935742 10.1666013,6.77332645 9.83753806,6.78871742 L6.28948645,6.40827871 C5.99131355,6.34129548 5.66225032,6.09970065 5.74451613,5.64198194 C6.56208,1.34334968 10.4441806,0.0474735484 13.9201548,0.0474735484 C15.699329,0.0474735484 18.0234735,0.520583226 19.4273032,1.86783484 C21.2064774,3.52865032 21.0367432,5.74484129 21.0367432,8.15645419 L21.0367432,13.8538219 C21.0367432,15.5661213 21.7463535,16.3168103 22.4147768,17.2424361 C22.6512774,17.5714994 22.7027613,17.9675458 22.40448,18.2142348 C21.6588852,18.8363768 20.3322271,19.993409 19.6021316,20.6413471 L19.5918348,20.6310503" id="Shape" fill="#000000"></path>
                        <path d="M23.5745187,22.7964077 C12.1684026,28.2247587 5.08964129,23.6830142 0.558301935,20.9244542 C0.277904516,20.7506013 -0.198673548,20.9650994 0.214823226,21.4400516 C1.72443871,23.2704929 6.67176774,27.6823897 13.129471,27.6823897 C19.5916181,27.6823897 23.436,24.1563406 23.9169135,23.5412439 C24.3945755,22.9313497 24.0571665,22.5949161 23.5744103,22.7964077 L23.5745187,22.7964077 Z M26.7778994,21.0273135 C26.4715974,20.628449 24.9153755,20.5540955 23.9359897,20.6744052 C22.9550865,20.7912465 21.4827561,21.3907355 21.6107613,21.750689 C21.6764439,21.8855226 21.8105187,21.8250426 22.4843613,21.7644542 C23.1600465,21.6970374 25.0529187,21.4581523 25.4473394,21.9737497 C25.8436026,22.4929239 24.8436232,24.9661006 24.660991,25.3649652 C24.4845368,25.7638297 24.7284077,25.866689 25.0598555,25.6010323 C25.386751,25.3354839 25.9785445,24.6477677 26.3756748,23.67456 C26.7700955,22.6960413 27.0106065,21.3310142 26.777791,21.0273135 L26.7778994,21.0273135 Z" id="Shape" fill="#FF9900"></path>
                        <path d="M19.5919432,20.6310503 C19.35024,20.8469574 19.0005832,20.8624568 18.7280981,20.7184103 C17.5145961,19.7106271 17.2985806,19.24272 16.6301574,18.2811097 C14.6247794,20.3276748 13.2055587,20.93952 10.6037265,20.93952 C7.52878452,20.93952 5.13256258,19.0420955 5.13256258,15.2421523 C5.13256258,12.2752723 6.74211097,10.2543948 9.03016258,9.26720516 C11.0150555,8.39295484 13.7866219,8.23872 15.9051561,7.99712516 L15.9051561,7.52401548 C15.9051561,6.65496774 15.9719226,5.62659097 15.4629368,4.87590194 C15.0155148,4.20227613 14.1619665,3.92458839 13.411169,3.92458839 C12.0177445,3.92458839 10.7733523,4.6392929 10.4699768,6.12018581 C10.4081961,6.44935742 10.1666013,6.77332645 9.83753806,6.78871742 L6.28948645,6.40827871 C5.99131355,6.34129548 5.66225032,6.09970065 5.74451613,5.64198194 C6.56208,1.34334968 10.4441806,0.0474735484 13.9201548,0.0474735484 C15.699329,0.0474735484 18.0234735,0.520583226 19.4273032,1.86783484 C21.2064774,3.52865032 21.0367432,5.74484129 21.0367432,8.15645419 L21.0367432,13.8538219 C21.0367432,15.5661213 21.7463535,16.3168103 22.4147768,17.2424361 C22.6512774,17.5714994 22.7027613,17.9675458 22.40448,18.2142348 C21.6588852,18.8363768 20.3322271,19.993409 19.6021316,20.6413471 L19.5918348,20.6310503" id="Shape" fill="#000000"></path>
                        <path d="M15.9051561,11.7198968 C15.9051561,13.1442116 15.9411406,14.3320258 15.2212335,15.5969032 C14.6401703,16.6253884 13.7197471,17.2578271 12.6913703,17.2578271 C11.2875406,17.2578271 10.4699768,16.1882632 10.4699768,14.6097135 C10.4699768,11.4935845 13.2620284,10.9280206 15.9051561,10.9280206 L15.9051561,11.7198968 Z" id="Path" fill="#FFFFFF"></path>
                    </g>
                </g>
            </g>
        </g>
    </g>
</svg>