<?xml version="1.0" encoding="UTF-8"?>
<svg width="52px" height="52px" viewBox="0 0 52 52" version="1.1" xmlns="http://www.w3.org/2000/svg" xmlns:xlink="http://www.w3.org/1999/xlink">
    <!-- Generator: Sketch 64 (93537) - https://sketch.com -->
    <title>hepsiburada</title>
    <desc>Created with Sketch.</desc>
    <defs>
        <rect id="path-1" x="0" y="0" width="44" height="44" rx="22"></rect>
        <filter x="-17.0%" y="-10.2%" width="134.1%" height="134.1%" filterUnits="objectBoundingBox" id="filter-2">
            <feOffset dx="0" dy="3" in="SourceAlpha" result="shadowOffsetOuter1"></feOffset>
            <feGaussianBlur stdDeviation="2" in="shadowOffsetOuter1" result="shadowBlurOuter1"></feGaussianBlur>
            <feColorMatrix values="0 0 0 0 0   0 0 0 0 0   0 0 0 0 0  0 0 0 0.105868253 0" type="matrix" in="shadowBlurOuter1"></feColorMatrix>
        </filter>
    </defs>
    <g id="Page-1" stroke="none" stroke-width="1" fill="none" fill-rule="evenodd">
        <g id="Artboard" transform="translate(-37.000000, -2213.000000)">
            <g id="Platform-Logo-Setleri-Vector" transform="translate(41.000000, 2090.000000)">
                <g id="hepsiburada" transform="translate(0.000000, 124.000000)">
                    <g id="Rectangle">
                        <use fill="black" fill-opacity="1" filter="url(#filter-2)" xlink:href="#path-1"></use>
                        <use fill="#FFFFFF" fill-rule="evenodd" xlink:href="#path-1"></use>
                    </g>
                    <g id="hepsiburadaicon" transform="translate(2.000000, 2.000000)">
                        <path d="M18.2,2.56 C17.4121,2.6178 16.3763,2.7833 15.66,2.9658 C15.3008,3.0574 15.1752,3.0907 15.08,3.12 C15.025,3.1369 14.899,3.1736 14.8,3.2015 C14.3888,3.3175 13.4324,3.6488 13.1531,3.772 C12.9721,3.8518 12.7112,3.9663 12.4,4.1026 C12.257,4.1652 12.086,4.2458 12.02,4.2817 C11.954,4.3176 11.738,4.4339 11.54,4.5403 C10.3036,5.2042 8.761,6.3062 8.04,7.0404 C6.9603,8.1399 6.5328,8.6157 6.0444,9.262 C5.9288,9.4149 5.8108,9.569 5.7822,9.6045 C5.7537,9.6399 5.6291,9.8199 5.5055,10.0045 C5.3819,10.189 5.2626,10.3617 5.2404,10.3883 C5.2182,10.4149 5.2,10.4476 5.2,10.4611 C5.2,10.4746 5.1487,10.5608 5.086,10.6528 C5.0233,10.7448 4.9268,10.901 4.8717,11 C4.8165,11.099 4.7242,11.261 4.6666,11.36 C4.5634,11.5373 4.1461,12.3781 3.9966,12.71 C3.9545,12.8035 3.8855,12.9565 3.8433,13.05 C3.8011,13.1435 3.719,13.355 3.6608,13.52 C3.6026,13.685 3.5381,13.8513 3.5175,13.8895 C3.4969,13.9277 3.48,13.9941 3.48,14.0371 C3.48,14.0801 3.462,14.1264 3.44,14.14 C3.418,14.1536 3.4,14.2076 3.4,14.26 C3.4,14.3124 3.382,14.3664 3.36,14.38 C3.338,14.3936 3.32,14.4476 3.32,14.5 C3.32,14.5524 3.302,14.6064 3.28,14.62 C3.258,14.6336 3.24,14.6876 3.24,14.74 C3.24,14.7924 3.224,14.8452 3.2044,14.8573 C3.1849,14.8694 3.1601,14.9379 3.1493,15.0096 C3.1386,15.0813 3.1014,15.2415 3.0666,15.3656 C2.9994,15.6051 2.8515,16.2867 2.7944,16.62 C2.6132,17.6773 2.5937,17.9347 2.5749,19.5159 L2.5572,21.0118 L2.8286,20.9879 C2.9779,20.9747 3.343,20.9338 3.64,20.897 C3.937,20.8603 4.297,20.8189 4.44,20.8051 L4.7,20.78 L4.706,19.76 C4.7136,18.4691 4.7806,17.7658 4.9985,16.69 C5.0197,16.5855 5.0479,16.437 5.0612,16.36 C5.0745,16.283 5.1009,16.184 5.1197,16.14 C5.1386,16.096 5.1625,16.015 5.173,15.96 C5.2159,15.7343 5.475,14.855 5.5561,14.66 C5.6551,14.4217 5.676,14.3682 5.7207,14.24 C5.7475,14.163 5.7924,14.046 5.8205,13.98 C5.8487,13.914 5.9136,13.761 5.9648,13.64 C6.0675,13.3972 6.4427,12.6527 6.6198,12.34 C6.6822,12.23 6.7682,12.077 6.8111,12 C6.8916,11.8554 7.5919,10.82 7.6957,10.6921 C7.7279,10.6525 7.8667,10.4768 8.0041,10.3018 C9.3593,8.576 11.8536,6.6874 13.76,5.9437 C13.859,5.905 13.994,5.8492 14.06,5.8196 C14.2624,5.7289 14.9234,5.494 15.24,5.4004 C15.405,5.3516 15.585,5.2976 15.64,5.2805 C16.6777,4.9567 18.381,4.7191 19.6516,4.7209 C20.8506,4.7226 22.4571,4.9249 23.42,5.1955 C23.486,5.214 23.612,5.2495 23.7,5.2744 C26.7666,6.1413 29.5302,7.9906 31.431,10.4477 C31.758,10.8704 31.6957,10.8703 32.1843,10.4488 C32.4067,10.2569 32.694,10.01 32.8227,9.9 C33.214,9.5657 33.4,9.3914 33.4,9.359 C33.4,9.3327 32.9845,8.7774 32.9218,8.72 C32.9098,8.709 32.7928,8.574 32.6618,8.42 C32.3551,8.0595 31.2962,6.9911 31.0242,6.7678 C30.9089,6.6731 30.7707,6.5559 30.7172,6.5074 C30.6638,6.4589 30.5391,6.3564 30.4401,6.2796 C30.3412,6.2028 30.2332,6.1182 30.2001,6.0915 C29.3404,5.3985 27.8925,4.5244 26.8,4.0388 C26.591,3.946 26.325,3.8272 26.2088,3.775 C26.0927,3.7227 25.9748,3.68 25.9468,3.68 C25.9189,3.68 25.8789,3.6646 25.858,3.6457 C25.8203,3.6117 24.6689,3.2217 24.4,3.1519 C24.323,3.1319 24.197,3.0973 24.12,3.0751 C23.5447,2.909 22.8308,2.7692 21.88,2.6363 C21.2215,2.5442 19.0334,2.4989 18.2,2.56 M24.9214,13.3919 C24.3803,13.6578 24.5566,14.44 25.1576,14.44 C25.76,14.44 25.9259,13.6643 25.38,13.4 C25.1814,13.3039 25.1034,13.3025 24.9214,13.3919 M8.1297,16.0888 L8.14,18.82 L8.56,18.8317 C8.791,18.8381 9.0205,18.8332 9.07,18.8209 L9.16,18.7985 L9.1606,17.5492 C9.1611,16.6006 9.1743,16.2624 9.2156,16.1437 C9.3871,15.6511 9.9298,15.4175 10.3417,15.6589 C10.6461,15.8372 10.657,15.8953 10.68,17.46 L10.7,18.82 L11.2,18.82 L11.7,18.82 L11.7119,17.4 C11.7268,15.6095 11.6867,15.3756 11.3108,15.0579 C10.8166,14.6403 9.8565,14.6233 9.3327,15.0228 C9.2627,15.0763 9.1955,15.12 9.1834,15.12 C9.1714,15.12 9.1567,14.7285 9.1508,14.25 L9.14,13.38 L8.6297,13.3688 L8.1194,13.3576 L8.1297,16.0888 M13.66,14.7583 C12.619,14.9219 12.0949,15.6503 12.1048,16.92 C12.1112,17.7435 12.2595,18.1439 12.6818,18.4776 C13.7067,19.2878 15.3452,19.0482 15.8745,18.0108 C16.0392,17.6878 16.0296,17.68 15.4676,17.68 L14.9753,17.68 L14.7717,17.8762 C14.2005,18.4268 13.1903,18.0909 13.1504,17.3372 L13.14,17.14 L14.58,17.12 L16.02,17.1 L16.0149,16.706 C15.9971,15.3422 15.0308,14.543 13.66,14.7583 M21.88,14.7577 C21.0541,14.9073 20.5525,15.547 20.6871,16.279 C20.7774,16.7703 21.0616,16.9719 22.0169,17.2224 C23.0232,17.4863 23.16,17.5532 23.16,17.7808 C23.16,18.0667 22.9594,18.1766 22.439,18.1758 C21.8857,18.175 21.7244,18.0719 21.5846,17.63 C21.5651,17.5682 21.5033,17.56 21.0563,17.56 L20.5501,17.56 L20.5676,17.7706 C20.6302,18.526 21.2991,18.9619 22.3906,18.9586186 C23.5727,18.955 24.1728,18.5124 24.178,17.64 C24.1824,16.8943 23.8583,16.6501 22.4,16.3007 C21.7706,16.1499 21.6111,16.023 21.7201,15.7597 C21.9003,15.3247 23.04,15.46 23.04,15.9164 C23.04,16.0559 24.0137,16.115 24.0661,15.9786 C24.1092,15.8663 23.9891,15.5148 23.8232,15.2677 C23.5605,14.8765 22.6066,14.6261 21.88,14.7577 M18.0173,14.8798 C17.8783,14.9472 17.6987,15.0794 17.5973,15.1888 L17.42,15.38 L17.4082,15.11 L17.3963,14.84 L16.8979,14.84 L16.3994,14.84 L16.4097,17.57 L16.42,20.3 L16.93,20.3112 L17.44,20.3224 L17.44,19.3612 C17.44,18.8325 17.4521,18.4 17.4669,18.4 C17.4816,18.4 17.5696,18.4792 17.6623,18.576 C18.2897,19.2308 19.64,18.9599 20.0355,18.1 C20.1667,17.8148 20.2014,17.7023 20.2638,17.36 C20.4893,16.1222 20.0685,15.1918 19.1081,14.8051 C18.8717,14.7099 18.2846,14.7501 18.0173,14.8798 M24.6496,16.83 L24.66,18.82 L25.16,18.82 L25.66,18.82 L25.6704,16.83 L25.6807,14.84 L25.16,14.84 L24.6393,14.84 L24.6496,16.83 M14.3763,15.6156 C14.6988,15.7279 14.9568,16.0441 14.9591,16.33 L14.96,16.44 L14.06,16.44 L13.16,16.44 L13.16,16.3396 C13.16,15.8148 13.82,15.422 14.3763,15.6156 M18.6851,15.6967 C19.4334,16.0114 19.4212,17.6935 18.6681,18.03 C17.9853,18.3352 17.4227,17.8146 17.4253903,16.88 C17.4274,16.1852 17.5337,15.9575 17.98,15.6923 C18.0917,15.6259 18.5231,15.6286 18.6851,15.6967 M8.12,23.14 L8.12,25.88 L8.64,25.88 L9.16,25.88 L9.16,25.6867 C9.16,25.4262 9.1797,25.4198 9.3646,25.6204 C9.8503,26.1473 10.8853,26.1159 11.435,25.5574 C12.3393,24.6387 12.1688,22.4902 11.1523,21.9956 C11.0796,21.9602 10.9678,21.9062 10.9039,21.8756 C10.5012,21.6826 9.7256,21.8397 9.3731,22.1855 C9.1502,22.4042 9.16,22.4425 9.16,21.3533 L9.16,20.4 L8.64,20.4 L8.12,20.4 L8.12,23.14 M26.1521,21.3356 C26.1386,22.3801 26.1369,22.3876 25.9561,22.1816 C25.5659,21.7372 24.6893,21.6703 24.14,22.043 C23.5773,22.4248 23.3135,23.0175 23.3045,23.92 C23.2932,25.0665 23.8226,25.8387 24.7282,25.9968 C25.1921,26.0778 25.6503,25.9292 25.9647,25.5958 C26.1969,25.3497 26.2,25.3503 26.2,25.64 L26.2,25.88 L26.7003,25.88 L27.2006,25.88 L27.1903,23.15 L27.18,20.42 L26.6721,20.4088 L26.1641,20.3976 L26.1521,21.3356 M18.62,21.8274 C18.3546,21.8873 18.0601,22.1183 17.8971,22.3942 C17.787,22.5805 17.7646,22.5521 17.7517,22.21 L17.74,21.9 L17.26,21.9 L16.78,21.9 L16.78,23.88 L16.78,25.86 L17.2853,25.8712 L17.7906,25.8823 L17.8074,24.6912 C17.8307,23.0431 17.9423,22.841 18.83,22.8402 L19.08,22.84 L19.08,22.32 L19.08,21.8 L18.89,21.8046 C18.7855,21.8072 18.664,21.8174 18.62,21.8274 M20.72,21.838 C20.0361,21.94 19.5775,22.3638 19.495,22.97 L19.4691,23.16 L19.9746,23.16 C20.4044,23.16 20.48,23.1507 20.48,23.098 C20.48,22.6454 21.4851,22.4348 21.781,22.8254 C22.0135,23.1324 21.7488,23.4053 21.1454,23.4805 C19.7809,23.6506 19.3982,23.9307 19.3663,24.7828 C19.3228,25.9463 20.5594,26.4359 21.5882,25.6625 C21.8876,25.4374 21.88,25.437 21.88,25.68 L21.88,25.88 L22.38,25.88 L22.88,25.88 L22.8796,24.37 C22.8791,22.7883 22.8665,22.6526 22.6924,22.3579 C22.4642,21.9716 21.5104,21.7202 20.72,21.838 M29.16,21.8243 C28.4883,21.9047 28.0459,22.2502 27.8966,22.811 C27.7983,23.1801 27.7728,23.16 28.34,23.16 C28.6767,23.16 28.84,23.1456 28.84,23.116 C28.84,22.8245 29.1155,22.6403 29.552,22.6401 C30.0453,22.6399 30.2,22.7436 30.2,23.0746 C30.2,23.3398 30.0791,23.3938 29.2,23.521 C28.6617,23.5989 28.3742,23.6948 28.1382,23.8751 C27.5006,24.3623 27.5913,25.5496 28.2905,25.8691 C28.862,26.1303 29.4091,26.0624 29.9516,25.663 C30.2562,25.4388 30.24,25.4378 30.24,25.68 L30.24,25.88 L30.7417,25.88 L31.2434,25.88 L31.2317,24.29 L31.22,22.7 L31.1096,22.4751 C30.8774,22.0023 30.0318,21.72 29.16,21.8243 M12.5067,21.9067 C12.4558,21.9576 12.4797,24.6834 12.5335,24.961 C12.7332,25.9915 14.0656,26.35 14.8527,25.585 C15.0654,25.3783 15.08,25.3836 15.08,25.6667 L15.08,25.88 L15.58,25.88 L16.08,25.88 L16.08,23.8788 L16.08,21.8776 L15.57,21.8888 L15.06,21.9 L15.04,23.2 C15.0212,24.419 15.0147,24.5115 14.9348,24.6843 C14.7643,25.0529 14.331,25.2393 13.9517,25.1071 C13.544,24.9651 13.52,24.8597 13.52,23.2129 L13.52,21.88 L13.0267,21.88 C12.7553,21.88 12.5213,21.892 12.5067,21.9067 M10.4893,22.8117 C11.1459,23.1734 11.0989,24.7567 10.4221,25.0748 C9.7449,25.3931 9.1503,24.8751 9.1432,23.9607 C9.1353,22.93 9.7506,22.4048 10.4893,22.8117 M25.641,22.7805 C26.4095,23.1779 26.3574,24.7726 25.5651,25.1036 C24.9122,25.3765 24.3593,24.8345 24.3603984,23.9227 C24.3617,22.959 24.9578,22.4272 25.641,22.7805 M21.84,24.2975 C21.84,24.8914 21.5568,25.2189 20.9994,25.2694 C20.5925,25.3063 20.38,25.1322 20.38,24.7622 C20.38,24.4067 20.5754,24.2584 21.2029,24.1377 C21.3883,24.1021 21.5933,24.0488 21.6584,24.0193 C21.8247,23.9439 21.84,23.9674 21.84,24.2975 M30.2,24.3175 C30.2,24.8147 30.046,25.063 29.6474,25.2083 C29.1722,25.3816 28.7945,25.2374 28.7381,24.8612 C28.6744,24.4367 28.8747,24.2753 29.66,24.1186 C29.792,24.0922 29.9533,24.047 30.0184,24.0182 C30.186,23.9438 30.2,23.9669 30.2,24.3175" id="path0" fill="#EB6116"></path>
                        <path d="M17.92,0.0395 C17.887,0.0611 17.7126,0.0791 17.5324,0.0794 C17.3522,0.0797 17.1936,0.098 17.18,0.12 C17.1664,0.142 17.0303,0.16 16.8776,0.16 C16.7192,0.16 16.6,0.1772 16.6,0.2 C16.6,0.222 16.501,0.24 16.38,0.24 C16.259,0.24 16.16,0.258 16.16,0.28 C16.16,0.302 16.07,0.32 15.96,0.32 C15.85,0.32 15.76,0.338 15.76,0.36 C15.76,0.382 15.679,0.4 15.58,0.4 C15.481,0.4 15.4,0.418 15.4,0.44 C15.4,0.462 15.328,0.48 15.24,0.48 C15.152,0.48 15.08,0.4957 15.08,0.5148 C15.08,0.534 14.9544,0.562 14.8009,0.5772 C14.6474,0.5923 14.5114,0.6216 14.4986,0.6423 C14.4858,0.663 14.4133,0.68 14.3376,0.68 C14.2619,0.68 14.2,0.698 14.2,0.72 C14.2,0.742 14.146,0.76 14.08,0.76 C14.014,0.76 13.96,0.778 13.96,0.8 C13.96,0.822 13.9071,0.84 13.8424,0.84 C13.7777,0.84 13.7136,0.858 13.7,0.88 C13.6864,0.902 13.6223,0.92 13.5576,0.92 C13.4929,0.92 13.44,0.938 13.44,0.96 C13.44,0.982 13.386,1 13.32,1 C13.254,1 13.2,1.018 13.2,1.04 C13.2,1.062 13.155,1.08 13.1,1.08 C13.045,1.08 13,1.094 13,1.1111 C13,1.1283 12.8875,1.1743 12.75,1.2134 C12.4614,1.2955 12.4029,1.3176 12.1662,1.4343 C12.0706,1.4814 11.9581,1.52 11.9162,1.52 C11.8743,1.52 11.84,1.538 11.84,1.56 C11.84,1.582 11.804,1.6 11.76,1.6 C11.716,1.6 11.68,1.618 11.68,1.64 C11.68,1.662 11.653,1.68 11.62,1.68 C11.587,1.68 11.56,1.698 11.56,1.72 C11.56,1.742 11.5238,1.76 11.4795,1.76 C11.4352,1.76 11.3677,1.7767 11.3295,1.7971 C11.2913,1.8176 11.1746,1.8671 11.0701,1.9071 C10.9657,1.9472 10.8802,1.9935 10.8801,2.01 C10.8801,2.0265 10.844,2.04 10.8,2.04 C10.756,2.04 10.72,2.058 10.72,2.08 C10.72,2.102 10.684,2.12 10.64,2.12 C10.596,2.12 10.56,2.1336 10.56,2.1502 C10.56,2.1669 10.5094,2.2029 10.4475,2.2303 C10.3856,2.2576 10.2964,2.316 10.2492,2.36 C10.202,2.404 10.1356,2.44 10.1017,2.44 C10.0678,2.44 10.04,2.458 10.04,2.48 C10.04,2.502 10.0065,2.52 9.9656,2.52 C9.9247,2.52 9.8249,2.565 9.7438,2.62 C9.6628,2.675 9.5792,2.72 9.5582,2.72 C9.5372,2.72 9.52,2.738 9.52,2.76 C9.52,2.782 9.488,2.8 9.4488,2.8 C9.4097,2.8 9.3517,2.836 9.32,2.88 C9.2883,2.924 9.2303,2.96 9.1912,2.96 C9.152,2.96 9.12,2.978 9.12,3 C9.12,3.022 9.093,3.04 9.06,3.04 C9.027,3.04 9,3.0558 9,3.0751 C9,3.0945 8.9465,3.1325 8.8811,3.1595 C8.8157,3.1866 8.7122,3.2518 8.6511,3.3043 C8.59,3.3569 8.5215,3.3999 8.4988,3.4 C8.4762,3.4 8.4317,3.436 8.4,3.48 C8.3683,3.524 8.3233,3.56 8.3,3.56 C8.2767,3.56 8.2317,3.596 8.2,3.64 C8.1683,3.684 8.118,3.72 8.0883,3.72 C8.0586,3.72 8.0092,3.7425 7.9785,3.77 C7.8564,3.8796 7.8022,3.92 7.7777,3.92 C7.7636,3.92 7.7017,3.974 7.64,4.04 C7.5783,4.106 7.5108,4.16 7.4899,4.16 C7.469,4.16 7.3997,4.2097 7.3359,4.2705 C7.2722,4.3313 7.1483,4.4348 7.0607,4.5005 C6.9731,4.5662 6.8276,4.692 6.7373,4.78 C6.647,4.868 6.5036,4.994 6.4187,5.06 C6.2184,5.2156 5.2156,6.2184 5.06,6.4187 C4.994,6.5036 4.868,6.647 4.78,6.7373 C4.692,6.8276 4.5662,6.9731 4.5005,7.0607 C4.4348,7.1483 4.3313,7.2722 4.2705,7.3359 C4.2097,7.3997 4.16,7.469 4.16,7.4899 C4.16,7.5108 4.106,7.5783 4.04,7.64 C3.974,7.7017 3.92,7.7642 3.92,7.7789 C3.92,7.7937 3.8975,7.8308 3.87,7.8615 C3.7477,7.9979 3.72,8.0399 3.72,8.0895 C3.72,8.1186 3.684,8.1683 3.64,8.2 C3.596,8.2317 3.56,8.2767 3.56,8.3 C3.56,8.3233 3.524,8.3683 3.48,8.4 C3.436,8.4317 3.4,8.4762 3.4,8.4988 C3.3999,8.5215 3.3569,8.59 3.3043,8.6511 C3.2518,8.7122 3.1866,8.8157 3.1595,8.8811 C3.1325,8.9465 3.0945,9 3.0751,9 C3.0558,9 3.04,9.027 3.04,9.06 C3.04,9.093 3.022,9.12 3,9.12 C2.978,9.12 2.96,9.152 2.96,9.1912 C2.96,9.2303 2.924,9.2883 2.88,9.32 C2.836,9.3517 2.8,9.4097 2.8,9.4488 C2.8,9.488 2.782,9.52 2.76,9.52 C2.738,9.52 2.72,9.5372 2.72,9.5582 C2.72,9.5792 2.675,9.6628 2.62,9.7438 C2.565,9.8249 2.52,9.9247 2.52,9.9656 C2.52,10.0065 2.502,10.04 2.48,10.04 C2.458,10.04 2.44,10.0694 2.44,10.1053 C2.44,10.1412 2.4071,10.1997 2.367,10.2353 C2.3268,10.2709 2.2684,10.3585 2.2372,10.43 C2.206,10.5015 2.1669,10.56 2.1502,10.56 C2.1336,10.56 2.12,10.596 2.12,10.64 C2.12,10.684 2.102,10.72 2.08,10.72 C2.058,10.72 2.04,10.756 2.04,10.8 C2.04,10.844 2.0265,10.8801 2.01,10.8801 C1.9935,10.8802 1.9472,10.9657 1.9071,11.0701 C1.8671,11.1746 1.8176,11.2913 1.7971,11.3295 C1.7767,11.3677 1.76,11.4352 1.76,11.4795 C1.76,11.5238 1.742,11.56 1.72,11.56 C1.698,11.56 1.68,11.587 1.68,11.62 C1.68,11.653 1.662,11.68 1.64,11.68 C1.618,11.68 1.6,11.716 1.6,11.76 C1.6,11.804 1.582,11.84 1.56,11.84 C1.538,11.84 1.52,11.8743 1.52,11.9162 C1.52,11.9581 1.4814,12.0706 1.4343,12.1662 C1.3176,12.4029 1.2955,12.4614 1.2134,12.75 C1.1743,12.8875 1.1283,13 1.1111,13 C1.094,13 1.08,13.045 1.08,13.1 C1.08,13.155 1.062,13.2 1.04,13.2 C1.018,13.2 1,13.254 1,13.32 C1,13.386 0.982,13.44 0.96,13.44 C0.938,13.44 0.92,13.4929 0.92,13.5576 C0.92,13.6223 0.902,13.6864 0.88,13.7 C0.858,13.7136 0.84,13.7777 0.84,13.8424 C0.84,13.9071 0.822,13.96 0.8,13.96 C0.778,13.96 0.76,14.014 0.76,14.08 C0.76,14.146 0.742,14.2 0.72,14.2 C0.698,14.2 0.68,14.2619 0.68,14.3376 C0.68,14.4133 0.663,14.4858 0.6423,14.4986 C0.6216,14.5114 0.5923,14.6474 0.5772,14.8009 C0.562,14.9544 0.534,15.08 0.5148,15.08 C0.4957,15.08 0.48,15.152 0.48,15.24 C0.48,15.328 0.462,15.4 0.44,15.4 C0.418,15.4 0.4,15.481 0.4,15.58 C0.4,15.679 0.382,15.76 0.36,15.76 C0.338,15.76 0.32,15.8399 0.32,15.9376 C0.32,16.0353 0.302,16.1264 0.28,16.14 C0.258,16.1536 0.24,16.2627 0.24,16.3824 C0.24,16.5021 0.222,16.6 0.2,16.6 C0.1773,16.6 0.16,16.7173 0.16,16.872 C0.16,17.0216 0.1433,17.1611 0.1228,17.182 C-0.0044,17.312 -0.0044,21.968 0.1228,22.098 C0.1433,22.1189 0.16,22.2483 0.16,22.3856 C0.16,22.5229 0.178,22.6464 0.2,22.66 C0.222,22.6736 0.24,22.7827 0.24,22.9024 C0.24,23.0221 0.258,23.12 0.28,23.12 C0.302,23.12 0.32,23.21 0.32,23.32 C0.32,23.43 0.338,23.52 0.36,23.52 C0.382,23.52 0.4,23.601 0.4,23.7 C0.4,23.799 0.418,23.88 0.44,23.88 C0.462,23.88 0.48,23.952 0.48,24.04 C0.48,24.128 0.4962,24.2 0.5159,24.2 C0.5357,24.2 0.5645,24.3261 0.58,24.4802 C0.5955,24.6342 0.6243,24.7703 0.6441,24.7825 C0.6638,24.7947 0.68,24.8667 0.68,24.9424 C0.68,25.0181 0.698,25.08 0.72,25.08 C0.742,25.08 0.76,25.134 0.76,25.2 C0.76,25.266 0.778,25.32 0.8,25.32 C0.822,25.32 0.84,25.3729 0.84,25.4376 C0.84,25.5023 0.858,25.5664 0.88,25.58 C0.902,25.5936 0.92,25.6577 0.92,25.7224 C0.92,25.7871 0.938,25.84 0.96,25.84 C0.982,25.84 1,25.894 1,25.96 C1,26.026 1.018,26.08 1.04,26.08 C1.062,26.08 1.08,26.1124 1.08,26.152 C1.08,26.1916 1.0952,26.2411 1.1137,26.262 C1.1323,26.2829 1.1783,26.408 1.2161,26.54 C1.2538,26.672 1.3016,26.8113 1.3223,26.8495 C1.3431,26.8877 1.36,26.9462 1.36,26.9795 C1.36,27.0128 1.378,27.04 1.4,27.04 C1.422,27.04 1.44,27.0749 1.44,27.1176 C1.44,27.1603 1.458,27.2064 1.48,27.22 C1.502,27.2336 1.52,27.2887 1.52,27.3424 C1.52,27.3961 1.538,27.44 1.56,27.44 C1.582,27.44 1.6,27.476 1.6,27.52 C1.6,27.564 1.618,27.6 1.64,27.6 C1.662,27.6 1.68,27.627 1.68,27.66 C1.68,27.693 1.698,27.72 1.72,27.72 C1.742,27.72 1.76,27.7562 1.76,27.8005 C1.76,27.8813 1.7693,27.906 1.8932,28.1532 C1.93,28.2265 1.96,28.312 1.96,28.3432 C1.96,28.3745 1.978,28.4 2,28.4 C2.022,28.4 2.04,28.436 2.04,28.48 C2.04,28.524 2.0546,28.56 2.0725,28.56 C2.0904,28.56 2.1298,28.623 2.16,28.7 C2.1902,28.777 2.2296,28.84 2.2475,28.84 C2.2654,28.84 2.28,28.8636 2.28,28.8925 C2.28,28.9213 2.316,28.9836 2.36,29.0308 C2.404,29.078 2.44,29.1444 2.44,29.1783 C2.44,29.2122 2.4558,29.24 2.475,29.24 C2.4943,29.24 2.52,29.2895 2.5323,29.35 C2.5445,29.4105 2.5917,29.4997 2.6373,29.5483 C2.6828,29.5969 2.72,29.6644 2.72,29.6983 C2.72,29.7322 2.738,29.76 2.76,29.76 C2.782,29.76 2.8,29.792 2.8,29.8312 C2.8,29.8703 2.836,29.9283 2.88,29.96 C2.924,29.9917 2.96,30.0497 2.96,30.0888 C2.96,30.128 2.978,30.16 3,30.16 C3.022,30.16 3.04,30.187 3.04,30.22 C3.04,30.253 3.0558,30.28 3.0751,30.28 C3.0945,30.28 3.1333,30.3355 3.1614,30.4034 C3.1895,30.4713 3.2322,30.5482 3.2563,30.5744 C3.3657,30.6934 3.56,30.9586 3.56,30.9888 C3.56,31.0073 3.596,31.0483 3.64,31.08 C3.684,31.1117 3.72,31.1615 3.72,31.1906 C3.72,31.2197 3.765,31.292 3.82,31.3513 C3.875,31.4107 3.92,31.4746 3.92,31.4935 C3.92,31.5124 3.974,31.5783 4.04,31.64 C4.106,31.7017 4.16,31.7692 4.16,31.7901 C4.16,31.811 4.2097,31.8803 4.2705,31.9441 C4.3313,32.0078 4.4348,32.1317 4.5005,32.2193 C4.5662,32.3069 4.692,32.4524 4.78,32.5427 C4.868,32.633 4.994,32.7765 5.06,32.8617 C5.126,32.9469 5.2918,33.1253 5.4284,33.2583 C5.7277,33.5496 5.7169,33.5388 5.9778,33.8058 C6.0929,33.9236 6.273,34.092 6.378,34.18 C6.4829,34.268 6.6561,34.421 6.7628,34.52 C7.0071,34.7466 7.0711,34.8 7.0983,34.8 C7.1102,34.8 7.1941,34.872 7.2848,34.96 C7.3755,35.048 7.4656,35.12 7.4852,35.12 C7.5047,35.12 7.5772,35.174 7.6463,35.24 C7.7154,35.306 7.7864,35.36 7.8041,35.36 C7.8219,35.36 7.8814,35.405 7.9364,35.46 C7.9914,35.515 8.0602,35.56 8.0894,35.56 C8.1185,35.56 8.1683,35.596 8.2,35.64 C8.2317,35.684 8.2767,35.72 8.3,35.72 C8.3233,35.72 8.3683,35.756 8.4,35.8 C8.4317,35.844 8.4745,35.88 8.4951,35.88 C8.5156,35.88 8.5914,35.925 8.6636,35.98 C8.7357,36.035 8.8189,36.08 8.8485,36.08 C8.8781,36.08 8.9283,36.116 8.96,36.16 C8.9917,36.204 9.0407,36.24 9.0688,36.24 C9.097,36.24 9.12,36.258 9.12,36.28 C9.12,36.302 9.152,36.32 9.1912,36.32 C9.2303,36.32 9.2883,36.356 9.32,36.4 C9.3517,36.444 9.4097,36.48 9.4488,36.48 C9.488,36.48 9.52,36.498 9.52,36.52 C9.52,36.542 9.5448,36.56 9.5751,36.56 C9.6054,36.56 9.6526,36.587 9.68,36.62 C9.7074,36.653 9.7636,36.68 9.8049,36.68 C9.8462,36.68 9.88,36.698 9.88,36.72 C9.88,36.742 9.916,36.76 9.96,36.76 C10.004,36.76 10.04,36.778 10.04,36.8 C10.04,36.822 10.0678,36.84 10.1017,36.84 C10.1356,36.84 10.1994,36.8736 10.2434,36.9146 C10.2875,36.9557 10.4082,37.0322 10.5118,37.0846 C10.6153,37.1371 10.706,37.1935 10.7133,37.21 C10.7207,37.2265 10.7567,37.2406 10.7933,37.2413 C10.83,37.242 10.8949,37.269 10.9376,37.3013 C10.9804,37.3336 11.0479,37.36 11.0876,37.36 C11.1274,37.36 11.16,37.378 11.16,37.4 C11.16,37.422 11.1949,37.44 11.2376,37.44 C11.2803,37.44 11.3264,37.458 11.34,37.48 C11.3536,37.502 11.4087,37.52 11.4624,37.52 C11.5161,37.52 11.56,37.538 11.56,37.56 C11.56,37.582 11.587,37.6 11.62,37.6 C11.653,37.6 11.68,37.618 11.68,37.64 C11.68,37.662 11.716,37.68 11.76,37.68 C11.804,37.68 11.84,37.698 11.84,37.72 C11.84,37.742 11.8839,37.76 11.9376,37.76 C11.9913,37.76 12.0464,37.778 12.06,37.8 C12.0736,37.822 12.1197,37.84 12.1624,37.84 C12.2051,37.84 12.24,37.858 12.24,37.88 C12.24,37.902 12.2749,37.92 12.3176,37.92 C12.3603,37.92 12.4061,37.9375 12.4193,37.9588 C12.4325,37.9802 12.5325,38.0095 12.6416,38.024 C12.7507,38.0385 12.84,38.066 12.84,38.0852 C12.84,38.1043 12.8749,38.12 12.9176,38.12 C12.9603,38.12 13.0064,38.138 13.02,38.16 C13.0336,38.182 13.0797,38.2 13.1224,38.2 C13.1651,38.2 13.2,38.218 13.2,38.24 C13.2,38.262 13.254,38.28 13.32,38.28 C13.386,38.28 13.44,38.298 13.44,38.32 C13.44,38.342 13.4929,38.36 13.5576,38.36 C13.6223,38.36 13.6864,38.378 13.7,38.4 C13.7136,38.422 13.7777,38.44 13.8424,38.44 C13.9071,38.44 13.96,38.458 13.96,38.48 C13.96,38.502 14.0129,38.52 14.0776,38.52 C14.1423,38.52 14.2053,38.5362 14.2176,38.5561 C14.2298,38.5759 14.3479,38.6047 14.48,38.62 C14.6121,38.6353 14.7302,38.6641 14.7424,38.6839 C14.7547,38.7038 14.8357,38.72 14.9224,38.72 C15.0091,38.72 15.08,38.738 15.08,38.76 C15.08,38.782 15.152,38.8 15.24,38.8 C15.328,38.8 15.4,38.818 15.4,38.84 C15.4,38.862 15.481,38.88 15.58,38.88 C15.679,38.88 15.76,38.898 15.76,38.92 C15.76,38.942 15.85,38.96 15.96,38.96 C16.07,38.96 16.16,38.978 16.16,39 C16.16,39.022 16.2579,39.04 16.3776,39.04 C16.4973,39.04 16.6064,39.058 16.62,39.08 C16.6336,39.102 16.7571,39.12 16.8944,39.12 C17.0317,39.12 17.1611,39.1364 17.182,39.1564 C17.3181,39.2869 22.08,39.2866 22.08,39.1561 C22.08,39.1363 22.2049,39.12 22.3576,39.12 C22.5103,39.12 22.6464,39.102 22.66,39.08 C22.6736,39.058 22.7827,39.04 22.9024,39.04 C23.0221,39.04 23.12,39.022 23.12,39 C23.12,38.978 23.21,38.96 23.32,38.96 C23.43,38.96 23.52,38.942 23.52,38.92 C23.52,38.898 23.601,38.88 23.7,38.88 C23.799,38.88 23.88,38.862 23.88,38.84 C23.88,38.818 23.952,38.8 24.04,38.8 C24.128,38.8 24.2,38.782 24.2,38.76 C24.2,38.738 24.2709,38.72 24.3576,38.72 C24.4443,38.72 24.5253,38.7038 24.5376,38.6839 C24.5498,38.6641 24.6679,38.6353 24.8,38.62 C24.9321,38.6047 25.0502,38.5759 25.0624,38.5561 C25.0747,38.5362 25.1377,38.52 25.2024,38.52 C25.2671,38.52 25.32,38.502 25.32,38.48 C25.32,38.458 25.3729,38.44 25.4376,38.44 C25.5023,38.44 25.5664,38.422 25.58,38.4 C25.5936,38.378 25.6577,38.36 25.7224,38.36 C25.7871,38.36 25.84,38.342 25.84,38.32 C25.84,38.298 25.8762,38.28 25.9205,38.28 C25.9648,38.28 26.0368,38.262 26.0805,38.24 C26.1242,38.218 26.1958,38.182 26.2395,38.16 C26.2832,38.138 26.3462,38.12 26.3795,38.12 C26.4128,38.12 26.44,38.1043 26.44,38.0852 C26.44,38.066 26.5293,38.0385 26.6384,38.024 C26.7475,38.0095 26.8475,37.9802 26.8607,37.9588 C26.8739,37.9375 26.9197,37.92 26.9624,37.92 C27.0051,37.92 27.04,37.902 27.04,37.88 C27.04,37.858 27.0749,37.84 27.1176,37.84 C27.1603,37.84 27.2064,37.822 27.22,37.8 C27.2336,37.778 27.2887,37.76 27.3424,37.76 C27.3961,37.76 27.44,37.742 27.44,37.72 C27.44,37.698 27.476,37.68 27.52,37.68 C27.564,37.68 27.6,37.662 27.6,37.64 C27.6,37.618 27.627,37.6 27.66,37.6 C27.693,37.6 27.72,37.582 27.72,37.56 C27.72,37.538 27.7639,37.52 27.8176,37.52 C27.8713,37.52 27.9264,37.502 27.94,37.48 C27.9536,37.458 27.9997,37.44 28.0424,37.44 C28.0851,37.44 28.12,37.422 28.12,37.4 C28.12,37.378 28.1382,37.36 28.1605,37.36 C28.2052,37.36 28.8081,37.0781 28.84,37.0423 C28.851,37.03 28.9095,36.9944 28.97,36.9632 C29.0305,36.932 29.08,36.8915 29.08,36.8732 C29.08,36.855 29.116,36.84 29.16,36.84 C29.204,36.84 29.24,36.822 29.24,36.8 C29.24,36.778 29.276,36.76 29.32,36.76 C29.364,36.76 29.4,36.744 29.4,36.7243 C29.4,36.7047 29.445,36.6774 29.5,36.6636 C29.555,36.6498 29.6,36.6208 29.6,36.5992 C29.6,36.5777 29.636,36.56 29.68,36.56 C29.724,36.56 29.76,36.542 29.76,36.52 C29.76,36.498 29.792,36.48 29.8312,36.48 C29.8703,36.48 29.9283,36.444 29.96,36.4 C29.9917,36.356 30.0497,36.32 30.0888,36.32 C30.128,36.32 30.16,36.302 30.16,36.28 C30.16,36.258 30.183,36.24 30.2112,36.24 C30.2393,36.24 30.2883,36.204 30.32,36.16 C30.3517,36.116 30.4024,36.08 30.4326,36.08 C30.4628,36.08 30.594,35.999 30.7242,35.9 C30.8544,35.801 30.9747,35.72 30.9916,35.72 C31.0085,35.72 31.0483,35.684 31.08,35.64 C31.1117,35.596 31.1615,35.56 31.1906,35.56 C31.2198,35.56 31.2886,35.515 31.3436,35.46 C31.3986,35.405 31.4581,35.36 31.4759,35.36 C31.4936,35.36 31.5646,35.306 31.6337,35.24 C31.7028,35.174 31.7743,35.12 31.7926,35.12 C31.8109,35.12 31.9222,35.03 32.04,34.92 C32.1578,34.81 32.2686,34.72 32.2862,34.72 C32.3038,34.72 32.4173,34.621 32.5383,34.5 C32.6593,34.379 32.767,34.28 32.7778,34.28 C32.8069,34.28 33.061,34.0492 33.3065,33.8 C33.5715,33.5309 33.5566,33.5458 33.8116,33.2949 C34.0503,33.06 34.28,32.8064 34.28,32.7778 C34.28,32.767 34.379,32.6593 34.5,32.5383 C34.621,32.4173 34.72,32.3038 34.72,32.2862 C34.72,32.2686 34.81,32.1578 34.92,32.04 C35.03,31.9222 35.12,31.8109 35.12,31.7926 C35.12,31.7743 35.174,31.7028 35.24,31.6337 C35.306,31.5646 35.36,31.4936 35.36,31.4759 C35.36,31.4581 35.405,31.3986 35.46,31.3436 C35.515,31.2886 35.56,31.2198 35.56,31.1906 C35.56,31.1615 35.596,31.1117 35.64,31.08 C35.684,31.0483 35.72,31.0085 35.72,30.9916 C35.72,30.9747 35.801,30.8544 35.9,30.7242 C35.999,30.594 36.08,30.4628 36.08,30.4326 C36.08,30.4024 36.116,30.3517 36.16,30.32 C36.204,30.2883 36.24,30.2393 36.24,30.2112 C36.24,30.183 36.258,30.16 36.28,30.16 C36.302,30.16 36.32,30.128 36.32,30.0888 C36.32,30.0497 36.356,29.9917 36.4,29.96 C36.444,29.9283 36.48,29.8703 36.48,29.8312 C36.48,29.792 36.498,29.76 36.52,29.76 C36.542,29.76 36.56,29.724 36.56,29.68 C36.56,29.636 36.5777,29.6 36.5992,29.6 C36.6208,29.6 36.6498,29.555 36.6636,29.5 C36.6774,29.445 36.7047,29.4 36.7243,29.4 C36.744,29.4 36.76,29.364 36.76,29.32 C36.76,29.276 36.778,29.24 36.8,29.24 C36.822,29.24 36.84,29.204 36.84,29.16 C36.84,29.116 36.855,29.08 36.8732,29.08 C36.8915,29.08 36.932,29.0305 36.9632,28.97 C36.9944,28.9095 37.03,28.851 37.0423,28.84 C37.0781,28.8081 37.36,28.2052 37.36,28.1605 C37.36,28.1382 37.378,28.12 37.4,28.12 C37.422,28.12 37.44,28.0851 37.44,28.0424 C37.44,27.9997 37.458,27.9536 37.48,27.94 C37.502,27.9264 37.52,27.8713 37.52,27.8176 C37.52,27.7639 37.538,27.72 37.56,27.72 C37.582,27.72 37.6,27.693 37.6,27.66 C37.6,27.627 37.618,27.6 37.64,27.6 C37.662,27.6 37.68,27.564 37.68,27.52 C37.68,27.476 37.698,27.44 37.72,27.44 C37.742,27.44 37.76,27.3961 37.76,27.3424 C37.76,27.2887 37.778,27.2336 37.8,27.22 C37.822,27.2064 37.84,27.1603 37.84,27.1176 C37.84,27.0749 37.858,27.04 37.88,27.04 C37.902,27.04 37.92,27.0051 37.92,26.9624 C37.92,26.9197 37.9375,26.8739 37.9588,26.8607 C37.9802,26.8475 38.0095,26.7475 38.024,26.6384 C38.0385,26.5293 38.066,26.44 38.0852,26.44 C38.1043,26.44 38.12,26.4128 38.12,26.3795 C38.12,26.3462 38.138,26.2832 38.16,26.2395 C38.182,26.1958 38.218,26.1242 38.24,26.0805 C38.262,26.0368 38.28,25.9659 38.28,25.9229 C38.28,25.8799 38.298,25.8336 38.32,25.82 C38.342,25.8064 38.36,25.7524 38.36,25.7 C38.36,25.6476 38.378,25.5936 38.4,25.58 C38.422,25.5664 38.44,25.5023 38.44,25.4376 C38.44,25.3729 38.458,25.32 38.48,25.32 C38.502,25.32 38.52,25.2671 38.52,25.2024 C38.52,25.1377 38.5366,25.0745 38.5569,25.0619 C38.5771,25.0494 38.6063,24.9221 38.6216,24.779 C38.6369,24.6359 38.6653,24.5091 38.6847,24.4971 C38.7041,24.4851 38.72,24.4133 38.72,24.3376 C38.72,24.2619 38.738,24.2 38.76,24.2 C38.782,24.2 38.8,24.128 38.8,24.04 C38.8,23.952 38.818,23.88 38.84,23.88 C38.862,23.88 38.88,23.799 38.88,23.7 C38.88,23.601 38.898,23.52 38.92,23.52 C38.942,23.52 38.96,23.43 38.96,23.32 C38.96,23.21 38.978,23.12 39,23.12 C39.022,23.12 39.04,23.0221 39.04,22.9024 C39.04,22.7827 39.058,22.6736 39.08,22.66 C39.102,22.6464 39.12,22.5103 39.12,22.3576 C39.12,22.2049 39.1363,22.08 39.1561,22.08 C39.2866,22.08 39.2869,17.3181 39.1564,17.182 C39.1364,17.1611 39.12,17.0317 39.12,16.8944 C39.12,16.7571 39.102,16.6336 39.08,16.62 C39.058,16.6064 39.04,16.4973 39.04,16.3776 C39.04,16.2579 39.022,16.16 39,16.16 C38.978,16.16 38.96,16.07 38.96,15.96 C38.96,15.85 38.942,15.76 38.92,15.76 C38.898,15.76 38.88,15.679 38.88,15.58 C38.88,15.481 38.862,15.4 38.84,15.4 C38.818,15.4 38.8,15.328 38.8,15.24 C38.8,15.152 38.782,15.08 38.76,15.08 C38.738,15.08 38.72,15.008 38.72,14.92 C38.72,14.832 38.7041,14.76 38.6847,14.76 C38.6652,14.76 38.6368,14.6432 38.6215,14.5004 C38.6062,14.3577 38.5771,14.2306 38.5569,14.2181 C38.5366,14.2055 38.52,14.1423 38.52,14.0776 C38.52,14.0129 38.502,13.96 38.48,13.96 C38.458,13.96 38.44,13.9071 38.44,13.8424 C38.44,13.7777 38.422,13.7136 38.4,13.7 C38.378,13.6864 38.36,13.6223 38.36,13.5576 C38.36,13.4929 38.342,13.44 38.32,13.44 C38.298,13.44 38.28,13.386 38.28,13.32 C38.28,13.254 38.262,13.2 38.24,13.2 C38.218,13.2 38.2,13.1651 38.2,13.1224 C38.2,13.0797 38.182,13.0336 38.16,13.02 C38.138,13.0064 38.12,12.9603 38.12,12.9176 C38.12,12.8749 38.1043,12.84 38.0852,12.84 C38.066,12.84 38.0385,12.7507 38.024,12.6416 C38.0095,12.5325 37.9802,12.4325 37.9588,12.4193 C37.9375,12.4061 37.92,12.3603 37.92,12.3176 C37.92,12.2749 37.902,12.24 37.88,12.24 C37.858,12.24 37.84,12.2051 37.84,12.1624 C37.84,12.1197 37.822,12.0736 37.8,12.06 C37.778,12.0464 37.76,11.9913 37.76,11.9376 C37.76,11.8839 37.742,11.84 37.72,11.84 C37.698,11.84 37.68,11.804 37.68,11.76 C37.68,11.716 37.662,11.68 37.64,11.68 C37.618,11.68 37.6,11.653 37.6,11.62 C37.6,11.587 37.582,11.56 37.56,11.56 C37.538,11.56 37.52,11.5161 37.52,11.4624 C37.52,11.4087 37.502,11.3536 37.48,11.34 C37.458,11.3264 37.44,11.2803 37.44,11.2376 C37.44,11.1949 37.422,11.16 37.4,11.16 C37.378,11.16 37.36,11.1274 37.36,11.0876 C37.36,11.0479 37.3336,10.9804 37.3013,10.9376 C37.269,10.8949 37.242,10.83 37.2413,10.7933 C37.2406,10.7567 37.2265,10.7207 37.21,10.7133 C37.1935,10.706 37.1371,10.6153 37.0846,10.5118 C37.0322,10.4082 36.9557,10.2875 36.9146,10.2434 C36.8736,10.1994 36.84,10.1356 36.84,10.1017 C36.84,10.0678 36.822,10.04 36.8,10.04 C36.778,10.04 36.76,10.004 36.76,9.96 C36.76,9.916 36.742,9.88 36.72,9.88 C36.698,9.88 36.68,9.8462 36.68,9.8049 C36.68,9.7636 36.653,9.7074 36.62,9.68 C36.587,9.6526 36.56,9.6054 36.56,9.5751 C36.56,9.5448 36.542,9.52 36.52,9.52 C36.498,9.52 36.48,9.488 36.48,9.4488 C36.48,9.4097 36.444,9.3517 36.4,9.32 C36.356,9.2883 36.32,9.2303 36.32,9.1912 C36.32,9.152 36.302,9.12 36.28,9.12 C36.258,9.12 36.24,9.097 36.24,9.0688 C36.24,9.0407 36.204,8.9917 36.16,8.96 C36.116,8.9283 36.08,8.8781 36.08,8.8485 C36.08,8.8189 36.035,8.7357 35.98,8.6636 C35.925,8.5914 35.88,8.5156 35.88,8.4951 C35.88,8.4745 35.844,8.4317 35.8,8.4 C35.756,8.3683 35.72,8.3233 35.72,8.3 C35.72,8.2767 35.684,8.2317 35.64,8.2 C35.596,8.1683 35.56,8.1185 35.56,8.0894 C35.56,8.0602 35.515,7.9914 35.46,7.9364 C35.405,7.8814 35.36,7.8219 35.36,7.8041 C35.36,7.7864 35.306,7.7154 35.24,7.6463 C35.174,7.5772 35.12,7.5057 35.12,7.4874 C35.12,7.4691 35.03,7.3578 34.92,7.24 C34.81,7.1222 34.72,7.0122 34.72,6.9956 C34.72,6.9789 34.6345,6.8761 34.53,6.767 C34.4255,6.658 34.268,6.4829 34.18,6.378 C34.092,6.273 33.9236,6.0929 33.8058,5.9778 C33.5424,5.7204 33.5752,5.7533 33.2699,5.44 C33.1305,5.297 32.9469,5.126 32.8617,5.06 C32.7765,4.994 32.6333,4.8677 32.5434,4.7793 C32.4535,4.691 32.3084,4.565 32.2209,4.4993 C32.1334,4.4337 32.0092,4.3305 31.945,4.27 C31.8807,4.2095 31.811,4.16 31.7901,4.16 C31.7692,4.16 31.7017,4.106 31.64,4.04 C31.5783,3.974 31.5124,3.92 31.4935,3.92 C31.4746,3.92 31.4107,3.875 31.3513,3.82 C31.292,3.765 31.2197,3.72 31.1906,3.72 C31.1615,3.72 31.1117,3.684 31.08,3.64 C31.0483,3.596 31.0073,3.56 30.9888,3.56 C30.9586,3.56 30.6934,3.3657 30.5744,3.2563 C30.5482,3.2322 30.4713,3.1895 30.4034,3.1614 C30.3355,3.1333 30.28,3.0945 30.28,3.0751 C30.28,3.0558 30.253,3.04 30.22,3.04 C30.187,3.04 30.16,3.022 30.16,3 C30.16,2.978 30.128,2.96 30.0888,2.96 C30.0497,2.96 29.9917,2.924 29.96,2.88 C29.9283,2.836 29.8703,2.8 29.8312,2.8 C29.792,2.8 29.76,2.782 29.76,2.76 C29.76,2.738 29.7322,2.72 29.6983,2.72 C29.6644,2.72 29.5969,2.6828 29.5483,2.6373 C29.4997,2.5917 29.4105,2.5445 29.35,2.5323 C29.2895,2.52 29.24,2.4942 29.24,2.475 C29.24,2.4558 29.2122,2.44 29.1783,2.44 C29.1444,2.44 29.078,2.404 29.0308,2.36 C28.9836,2.316 28.9213,2.28 28.8925,2.28 C28.8636,2.28 28.84,2.262 28.84,2.24 C28.84,2.218 28.813,2.2 28.78,2.2 C28.747,2.2 28.72,2.182 28.72,2.16 C28.72,2.138 28.684,2.12 28.64,2.12 C28.596,2.12 28.56,2.102 28.56,2.08 C28.56,2.058 28.524,2.04 28.48,2.04 C28.436,2.04 28.4,2.022 28.4,2 C28.4,1.978 28.3745,1.96 28.3432,1.96 C28.312,1.96 28.2265,1.93 28.1532,1.8932 C27.906,1.7693 27.8813,1.76 27.8005,1.76 C27.7562,1.76 27.72,1.742 27.72,1.72 C27.72,1.698 27.693,1.68 27.66,1.68 C27.627,1.68 27.6,1.662 27.6,1.64 C27.6,1.618 27.564,1.6 27.52,1.6 C27.476,1.6 27.44,1.582 27.44,1.56 C27.44,1.538 27.3961,1.52 27.3424,1.52 C27.2887,1.52 27.2336,1.502 27.22,1.48 C27.2064,1.458 27.1603,1.44 27.1176,1.44 C27.0749,1.44 27.04,1.422 27.04,1.4 C27.04,1.378 27.0128,1.36 26.9795,1.36 C26.9462,1.36 26.8877,1.3433 26.8495,1.3229 C26.8113,1.3025 26.681,1.2568 26.56,1.2213 C26.3469,1.1589 26.2149,1.1088 26.0705,1.0353 C26.0323,1.0159 25.9648,1 25.9205,1 C25.8762,1 25.84,0.982 25.84,0.96 C25.84,0.938 25.7871,0.92 25.7224,0.92 C25.6577,0.92 25.5936,0.902 25.58,0.88 C25.5664,0.858 25.5023,0.84 25.4376,0.84 C25.3729,0.84 25.32,0.822 25.32,0.8 C25.32,0.778 25.266,0.76 25.2,0.76 C25.134,0.76 25.08,0.742 25.08,0.72 C25.08,0.698 25.0181,0.68 24.9424,0.68 C24.8667,0.68 24.7947,0.6638 24.7825,0.6441 C24.7703,0.6243 24.6342,0.5955 24.4802,0.58 C24.3261,0.5645 24.2,0.5357 24.2,0.5159 C24.2,0.4962 24.128,0.48 24.04,0.48 C23.952,0.48 23.88,0.462 23.88,0.44 C23.88,0.418 23.799,0.4 23.7,0.4 C23.601,0.4 23.52,0.382 23.52,0.36 C23.52,0.338 23.43,0.32 23.32,0.32 C23.21,0.32 23.12,0.302 23.12,0.28 C23.12,0.258 23.0221,0.24 22.9024,0.24 C22.7827,0.24 22.6736,0.222 22.66,0.2 C22.6464,0.178 22.5229,0.16 22.3856,0.16 C22.2483,0.16 22.1189,0.1433 22.098,0.1228 C22.0098,0.0365 18.0454,-0.0425 17.92,0.0395 M21.24,2.5206 C22.307,2.6159 23.7061,2.8686 24.32,3.0768 C24.375,3.0955 24.501,3.1333 24.6,3.161 C24.8756,3.2379 25.8974,3.5862 26.0683,3.6614 C26.1517,3.6981 26.256,3.742 26.3,3.759 C26.5215,3.8444 27.7922,4.4594 28.02,4.5914 C28.086,4.6296 28.248,4.7227 28.38,4.7983 C28.6244,4.9382 29.6436,5.5987 29.68,5.6407 C29.691,5.6535 29.763,5.7072 29.84,5.7603 C30.8592,6.4623 32.2891,7.8337 33.1652,8.9494 C33.3163,9.1419 33.44,9.314 33.44,9.3319 C33.44,9.3497 33.5404,9.5001 33.6632,9.6661 C34.6906,11.0553 35.7544,13.2476 36.2029,14.9 C36.2208,14.966 36.2557,15.092 36.2804,15.18 C36.9729,17.647 37.0534,20.9055 36.4819,23.34 C36.2702,24.242 36.2771,24.2166 36.0354,24.98 C35.6008,26.3527 34.8782,27.8643 34.0494,29.1346 C33.947,29.2916 33.852,29.429 33.8384,29.44 C33.8247,29.451 33.7227,29.5955 33.6116,29.7611 C32.516,31.3942 30.2497,33.4627 28.4,34.5178 C26.1027,35.8282 24.0085,36.5124 21.4,36.8048 C20.8004,36.872 18.5227,36.8725 17.98,36.8056 C17.582,36.7565 16.8126,36.6492 16.66,36.6215 C16.4102,36.5762 16.082,36.5096 15.96,36.4795 C15.883,36.4606 15.73,36.4237 15.62,36.3975 C12.2619,35.5995 8.9645,33.6049 6.7591,31.0376 C6.6386,30.8973 6.4484,30.6829 6.3365,30.5612 C5.5496,29.7057 4.5203,28.0146 3.828,26.44 C3.6361,26.0035 3.2468,24.9015 3.0862,24.34 C2.6132,22.6863 2.391,20.6505 2.4816,18.8 C2.5058,18.305 2.5424,17.8245 2.5628,17.7323 C2.5833,17.64 2.6,17.5061 2.6,17.4347 C2.6,17.3143 2.6197,17.1843 2.7263,16.6 C2.798,16.2076 2.9119,15.6984 3.0262,15.26 C3.2019,14.5862 3.5786,13.4799 3.8095,12.96 C4.5876,11.2072 5.4017,9.8809 6.4979,8.5802 C7.3451,7.5748 8.6474,6.353 9.46,5.8011 C9.57,5.7264 9.669,5.6531 9.68,5.6382 C9.7141,5.592 10.6376,5.0005 11.0902,4.7349 C11.5656,4.4559 12.6604,3.9135 13.06,3.7589 C13.104,3.7419 13.221,3.6928 13.32,3.6498 C13.419,3.6068 13.761,3.4856 14.08,3.3804 C14.399,3.2753 14.696,3.1751 14.74,3.1579 C14.784,3.1407 14.865,3.1158 14.92,3.1024 C14.975,3.0891 15.192,3.0338 15.4023,2.9795 C16.3413,2.7372 17.2362,2.5913 18.22,2.5202 C18.528,2.498 18.807,2.4718 18.84,2.4621 C18.9401,2.4326 20.7486,2.4766 21.24,2.5206 M18.86,4.8025 C17.8972,4.857 17.1661,4.9638 16.16,5.1971 C15.6693,5.3109 15.0552,5.4902 14.78,5.6 C14.736,5.6176 14.637,5.6536 14.56,5.68 C14.483,5.7064 14.3795,5.7443 14.33,5.764 C14.2805,5.7838 14.1995,5.8161 14.15,5.8359 C14.1005,5.8556 13.956,5.9186 13.8289,5.9759 C13.7018,6.0331 13.5896,6.08 13.5797,6.08 C13.5364,6.08 12.8285,6.4354 12.4867,6.6288 C12.2813,6.745 12.1061,6.84 12.0972,6.84 C12.0767,6.84 11.0269,7.5296 11,7.5607 C10.989,7.5735 10.917,7.6277 10.84,7.6814 C10.6673,7.8016 10.6873,7.7857 10.0803,8.2872 C9.2571,8.9672 8.4813,9.7794 7.7946,10.68 C7.4146,11.1785 7.1944,11.5071 6.7896,12.18 C6.5549,12.5703 6.094,13.5068 5.9039,13.98 C5.7979,14.244 5.6958,14.496 5.6771,14.54 C5.5322,14.8808 5.1959,16.0582 5.0859,16.61 C4.847,17.8077 4.7865,18.4287 4.7888321,19.66 C4.7914,20.9491 4.862,21.6396 5.1202,22.9 C5.2164,23.3696 5.5463,24.5018 5.6826,24.83 C5.7032,24.8795 5.7356,24.9605 5.7546,25.01 C5.8077,25.1478 5.864,25.2818 5.956,25.4896 C6.0022,25.5938 6.04,25.6891 6.04,25.7014 C6.04,25.7472 6.424,26.5135 6.6282,26.8751 C6.7447,27.0814 6.84,27.256 6.84,27.2631 C6.84,27.2845 7.5285,28.334 7.5758,28.3846 C7.6001,28.4106 7.719,28.5706 7.84,28.7401 C9.3443,30.8475 12.2015,32.9414 14.6627,33.74 C14.7712,33.7752 14.896,33.8192 14.94,33.8377 C15.4702,34.0605 16.9919,34.395 18.08,34.5278 C18.6385,34.596 20.727,34.5957 21.26,34.5274 C22.5889,34.357 24.1346,33.9943 24.86,33.6826 C24.904,33.6637 25.129,33.5722 25.36,33.4794 C25.9393,33.2465 27.0129,32.7091 27.2862,32.5153 C27.3446,32.4739 27.4049,32.44 27.4202,32.44 C27.5215,32.44 28.8492,31.4705 29.44,30.9651 C34.8075,26.3737 36.2024,18.2489 32.6513,12.26 C32.439,11.9019 31.7479,10.8796 31.6332,10.7541 C31.56,10.6739 31.473,10.5744 31.44,10.533 C31.407,10.4915 31.309,10.3682 31.2223,10.2588 C30.6906,9.5886 29.7576,8.656 29.1,8.1377 C28.99,8.0509 28.891,7.971 28.88,7.9599 C28.869,7.9488 28.752,7.8589 28.62,7.76 C28.488,7.6611 28.371,7.5712 28.36,7.5601 C28.3275,7.5274 27.5222,7 27.3856,6.9219 C26.4503,6.3872 26.1646,6.2397 25.64,6.0208 C25.497,5.9612 25.317,5.8853 25.24,5.8521 C25.0444,5.7679 24.961,5.7353 24.8,5.68 C24.723,5.6536 24.624,5.6181 24.58,5.6011 C24.3646,5.5182 23.7855,5.3432 23.5,5.2747 C23.412,5.2536 23.268,5.2182 23.18,5.196 C21.9233,4.879 20.2313,4.7249 18.86,4.8025 M9.1226,13.3214 C9.1954,13.3603 9.2,13.4133 9.2,14.2041 L9.2,15.0454 L9.31,14.9697 C9.9238,14.5472 10.9068,14.5966 11.3943,15.0744 C11.5375,15.2148 11.5849,15.2944 11.7144,15.6119 C11.7459,15.6891 11.76,16.2122 11.76,17.3019 L11.76,18.88 L11.2043,18.88 C10.5259,18.88 10.6,19.0562 10.6,17.4427 C10.6,16.087 10.5856,15.9449 10.4312,15.7739 C10.2254,15.5461 9.6748,15.5893 9.4347,15.8522 C9.2387,16.0668 9.2251,16.1664 9.2018,17.56 L9.18,18.86 L8.63,18.8711 L8.08,18.8823 L8.08,16.1045 C8.08,13.9197 8.0907,13.3224 8.13,13.3065 C8.2256,13.2679 9.0457,13.2803 9.1226,13.3214 M25.42,13.36 C25.8705,13.5781 25.869,14.2192 25.4174,14.4403 C25.1074,14.5922 24.7911,14.4852 24.6152,14.1689 C24.3327,13.6611 24.8883,13.1026 25.42,13.36 M22.74,14.6957 C23.5293,14.8291 23.9229,15.1201 24.0768,15.6841 C24.1791,16.0586 24.1772,16.06 23.5663,16.06 L23.0326,16.06 L22.9781,15.9015 C22.8552,15.5441 22.2338,15.4128 21.85,15.6631 C21.643,15.7982 21.7825,16.1058 22.08,16.1703 C22.135,16.1823 22.279,16.2187 22.4,16.2513 C22.521,16.2838 22.692,16.3231 22.78,16.3386 C23.7277,16.5049 24.2396,16.9672 24.2402005,17.6571 C24.2409,18.5127 23.5465,19.0193 22.38,19.0142381 C21.3824,19.0098 20.8413,18.7148 20.5565,18.02 C20.526,17.9456 20.5016,17.6846 20.5144,17.57 C20.5186,17.5328 20.6564,17.52 21.0536,17.52 C21.6196,17.52 21.6798,17.5442 21.68,17.7719 C21.6801,17.8467 21.862,18.04 21.9323,18.04 C21.9669,18.04 22.0064,18.058 22.02,18.08 C22.0339,18.1026 22.2137,18.1187 22.4324,18.1171 C22.9278,18.1133 23.0542,18.0526 23.0722,17.8094 C23.0882,17.5929 22.9794,17.5176 22.48,17.3994 C21.1968,17.0959 20.7777,16.8632 20.6493,16.3831 C20.3656,15.3225 21.4189,14.4724 22.74,14.6957 M14.86,14.804 C15.3927,14.9987 15.7588,15.3803 15.95,15.94 C16.0392,16.2013 16.1317,16.9266 16.0941,17.0705 L16.0707,17.16 L14.6341,17.16 C13.0323,17.16 13.1199,17.1425 13.2015,17.4454 C13.3821,18.1162 14.2864,18.3287 14.7778,17.8158 L14.9463,17.64 L15.4708,17.64 C16.0228,17.64 16.0818,17.659 16.0088,17.8138 C15.9864,17.8612 15.9405,17.963 15.9068,18.04 C15.2582,19.5186 12.73,19.2916 12.1192,17.7 C11.9741,17.322 11.9746,16.4269 12.1202,16.06 C12.1376,16.016 12.1749,15.917 12.2029,15.84 C12.5412,14.9117 13.8059,14.4186 14.86,14.804 M19.1734,14.7775 C20.1212,15.1198 20.6037,16.3909 20.26,17.64 C19.9091,18.9156 18.4046,19.4632 17.6243,18.5995 L17.4814,18.4414 L17.4707,19.3907 L17.46,20.34 L16.9311,20.3512 C16.4095,20.3622 16.4018,20.361 16.38,20.2712 C16.3679,20.221 16.3629,18.974 16.369,17.5 L16.38,14.82 L16.92,14.82 L17.46,14.82 L17.472,15.028 L17.484,15.236 L17.652,15.0758 C18.0228,14.722 18.6689,14.5953 19.1734,14.7775 M25.74,16.84 L25.74,18.86 L25.17,18.8711 L24.6,18.8822 L24.6,16.84 L24.6,14.7978 L25.17,14.8089 L25.74,14.82 L25.74,16.84 M13.7362,15.6722 C13.4398,15.7949 13.2813,15.979 13.2205,16.2708 L13.1933,16.4016 L14.0466,16.3908 L14.9,16.38 L14.8859,16.26 C14.8297,15.7804 14.2234,15.4704 13.7362,15.6722 M18.02,15.7397 C17.285,15.9978 17.26,17.6766 17.9867,17.9802 C18.6536,18.2589 19.1692,17.7718 19.1723152,16.86 C19.1754,15.9573 18.7044,15.4994 18.02,15.7397 M9.1907,21.3277 L9.2014,22.2754 L9.3605,22.1241 C9.81,21.6966 10.4922,21.62 11.1372,21.9246 C12.3344,22.4902 12.4013,25.0053 11.24,25.7848 C10.673,26.1653 9.7353,26.1123 9.3424,25.6774 L9.2042,25.5244 L9.1921,25.7122 L9.18,25.9 L8.64,25.9 L8.1,25.9 L8.0896,23.18 C8.0839,21.684 8.0881,20.437 8.0988,20.4088 C8.1137,20.37 8.2467,20.3604 8.6492,20.3688 L9.18,20.38 L9.1907,21.3277 M27.2303,23.15 L27.2405,25.92 L26.7003,25.92 L26.16,25.92 L26.16,25.72 C26.16,25.4837 26.1395,25.4764 25.9757,25.6548 C25.2183,26.4801 23.704,25.9843 23.3654,24.8 C23.3434,24.723 23.3049,24.588 23.2798,24.5 C23.0335,23.6353 23.5435,22.2455 24.2248,21.9249 C24.2881,21.8951 24.367,21.8575 24.4,21.8415 C24.8405,21.6272 25.4831,21.722 25.9049,22.0635 C26.1264,22.2428 26.12,22.2668 26.12,21.2522 L26.12,20.3577 L26.67,20.3689 L27.22,20.38 L27.2303,23.15 M19.1111,22.31 L19.1222,22.88 L18.8788,22.88 C18.4972,22.88 18.2882,22.9497 18.0973,23.1406 C17.8786,23.3593 17.8736,23.3923 17.8534,24.7711 L17.8365,25.9222 L17.2883,25.9111 L16.74,25.9 L16.7289,23.96 C16.7152,21.5624 16.6452,21.8351 17.2711,21.8488 L17.78,21.86 L17.7919,22.11 C17.8052,22.3886 17.8253,22.408 17.9405,22.2533 C18.1969,21.9091 18.5596,21.7208 18.94,21.7343 L19.1,21.74 L19.1111,22.31 M21.9972,21.8611 C22.4891,22.0373 22.6776,22.179 22.815,22.4763 C22.921,22.7054 22.9729,25.8618 22.8717,25.926 C22.812,25.9638 21.9979,25.972 21.9033,25.9357 C21.8644,25.9208 21.8398,25.863 21.8394,25.7857 C21.8384,25.5739 21.7935,25.5517 21.6392,25.6867 C20.9546,26.2856 19.7697,26.1485 19.417,25.4297 C18.9692,24.517 19.6881,23.487 20.7776,23.4807 C21.0731,23.479 21.6189,23.3461 21.73,23.2489 C21.8079,23.1807 21.8221,22.996 21.7586,22.8773 C21.6488,22.6722 21.0049,22.603 20.7597,22.77 C20.6259,22.8611 20.6033,22.892 20.5251,23.09 L20.4817,23.2 L19.9632,23.2 C19.3755,23.2 19.3796,23.2023 19.4549,22.9133 C19.6073,22.3287 19.8658,22.0427 20.42,21.8456 C20.7048,21.7443 21.6983,21.754 21.9972,21.8611 M30.3572,21.8611 C30.8637,22.0425 31.0335,22.1704 31.1755,22.4773 C31.2811,22.7055 31.3325,25.862 31.2317,25.926 C31.172,25.9638 30.3579,25.972 30.2633,25.9357 C30.2212,25.9196 30.2,25.8614 30.2,25.7624 C30.2,25.5566 30.1695,25.5434 30.0128,25.681 C29.3141,26.2944 28.1565,26.1526 27.77,25.4062 C27.674,25.2208 27.6372,24.5231 27.7153,24.3695 C27.7348,24.3313 27.774,24.2501 27.8026,24.189 C28.0129,23.7399 28.441,23.5582 29.62,23.418 C30.2089,23.3479 30.3832,22.9304 29.9081,22.7277 C29.7101,22.6433 29.2712,22.6668 29.1197,22.77 C28.9858,22.8612 28.9635,22.8917 28.8846,23.0912 L28.8407,23.2023 L28.3103,23.1912 C27.867,23.1818 27.7811,23.1702 27.7866,23.12 C27.854,22.5075 28.3229,21.88 28.7132,21.88 C28.7521,21.88 28.8011,21.8632 28.822,21.8427 C28.9226,21.7439 30.0684,21.7576 30.3572,21.8611 M13.5618,23.15 C13.5643,24.9965 13.6617,25.2228 14.3846,25.06 C14.934,24.9362 14.9705,24.8242 14.998,23.18 L15.02,21.86 L15.57,21.8489 L16.12,21.8377 L16.12,23.8789 L16.12,25.92 L15.58,25.92 L15.04,25.92 L15.04,25.72 C15.04,25.4796 15.0385,25.4793 14.8152,25.6759 C14.0898,26.3144 12.8861,26.0827 12.5509,25.24 C12.4652,25.0246 12.3814,22.0903 12.4554,21.8975 C12.4731,21.8514 12.5851,21.84 13.0187,21.84 L13.56,21.84 L13.5618,23.15 M9.6332,22.8411 C8.9533,23.2002 9.0663,24.8145 9.7889,25.0662 C10.1973,25.2084 10.8,24.8978 10.8,24.5452 C10.8,24.5119 10.818,24.4736 10.84,24.46 C10.8957,24.4256 10.891,23.5107 10.8344,23.3719 C10.6758,22.9829 10.6447,22.9427 10.412,22.8248 C10.231,22.7332 9.8213,22.7417 9.6332,22.8411 M24.8516,22.8386 C24.3151,23.1657 24.232,24.4332 24.7167,24.897 C25.2012,25.3606 25.9192,25.0741 26.0806,24.3529 C26.3173,23.2952 25.5842,22.3919 24.8516,22.8386 M21.64,24.0774 C21.607,24.0966 21.418,24.1441 21.22,24.183 C20.6311,24.2987 20.4,24.459 20.4,24.7519 C20.4,25.0717 20.5785,25.2164 20.9643,25.2092 C21.5133,25.199 21.798,24.8857 21.7994099,24.29 C21.8,24.035 21.7735,23.9996 21.64,24.0774 M30.0683,24.065 C30.0546,24.0787 29.8491,24.1308 29.6117,24.1807 C28.9831,24.3127 28.8431,24.3945 28.7739,24.6701 C28.5921,25.3945 29.8571,25.4056 30.1094,24.6818 C30.1997,24.4225 30.1692,23.9641 30.0683,24.065" id="path1" fill="#FFFFFF"></path>
                        <path d="M4.44,20.8011 C4.297,20.8171 3.937,20.8603 3.64,20.897 C3.343,20.9338 2.976,20.9748 2.8244,20.9882 L2.5488,21.0125 L2.5733,21.3763 C2.7387,23.8295 3.7523,26.7082 5.2997,29.1198 C5.5437,29.5001 6.2422,30.44 6.2808,30.44 C6.2968,30.44 6.5606,30.2375 6.8669,29.99 C7.1733,29.7425 7.4928,29.486 7.5769,29.42 C7.661,29.354 7.7985,29.2403 7.8824,29.1674 L8.035,29.0348 L7.7825,28.7074 C7.5652,28.4256 6.9283,27.4716 6.7093,27.1 C6.3111,26.4242 5.7722,25.2021 5.4833,24.32 C5.2656,23.6552 5.2591,23.633 5.1665,23.24 C4.9873,22.4791 4.8397,21.5658 4.789,20.9031 C4.7784,20.7648 4.7744,20.7636 4.44,20.8011 M31.6121,28.6637 C31.3767,28.9676 31.1351,29.2612 30.8418,29.6 C29.4214,31.2405 27.1481,32.8263 25.14,33.5775 C24.92,33.6598 24.704,33.7423 24.66,33.7609 C24.1406,33.9805 22.8172,34.3112 21.96,34.4357 C21.795,34.4597 21.525,34.5011 21.36,34.5278 C21.1669,34.5591 20.5395,34.5774 19.6,34.5793 L18.14,34.5822 L18.1133,34.7811 C18.0684,35.1159 17.9552,35.9252 17.9148,36.2 C17.8938,36.343 17.866,36.5365 17.8531,36.63 L17.8296,36.8 L17.9648,36.8002 C18.0392,36.8003 18.442,36.8193 18.86,36.8423 C20.0379,36.9072 21.6472,36.8066 22.78,36.5973 C23.2835,36.5042 23.3935,36.4799 23.86,36.3588 C24.5657,36.1755 24.5425,36.1822 25.04,36.0207 C26.3854,35.5842 27.8019,34.9037 29.12,34.0609 C29.285,33.9553 29.429,33.8566 29.44,33.8415 C29.451,33.8264 29.568,33.7409 29.7,33.6516 C29.9037,33.5138 30.1767,33.3058 30.54,33.0115 C31.5075,32.2277 33.5162,30.1021 33.5194004,29.8586 C33.5197,29.8358 33.347,29.6918 33.1356,29.5386 C32.9241,29.3854 32.5956,29.1463 32.4056,29.0074 C32.2155,28.8685 31.9844,28.7017 31.8921,28.6369 L31.7242,28.519 L31.6121,28.6637" id="path2" fill="#7526DA"></path>
                        <path d="M33.14,9.6455 C32.986,9.7798 32.797,9.9461 32.72,10.0151 C32.643,10.0841 32.472,10.2304 32.34,10.3402 C32.208,10.4501 32.0219,10.613 31.9264,10.7024 L31.7528,10.865 L32.1665,11.5025 C32.6934,12.3144 32.6656,12.2664 33.0405,13.0154 C35.4397,17.8087 35.084,23.4589 32.0992,27.9654 L31.7312,28.521 L32.2556,28.9004 C33.3244,29.6738 33.5003,29.8058 33.5143,29.8455 C33.5222,29.8678 33.5927,29.7902 33.671,29.673 C33.7493,29.5559 33.8245,29.451 33.8383,29.44 C34.2495,29.1104 35.5878,26.3937 36.0354,24.98 C36.2771,24.2166 36.2702,24.242 36.4819,23.34 C36.9986,21.1389 36.9824,18.0706 36.4421,15.82 C36.3585,15.4718 36.3236,15.3338 36.2827,15.19 C36.2592,15.1075 36.2243,14.9815 36.2052,14.91 C35.7722,13.2939 34.7464,11.1649 33.7092,9.73 C33.4255,9.3375 33.4834,9.3461 33.14,9.6455 M7.8753,29.1696 C7.7957,29.2413 7.6616,29.354 7.5772,29.42 C6.9092,29.9429 6.302,30.4568 6.312,30.4908 C6.3261,30.5392 6.6172,30.8896 6.9,31.1985 C9.29,33.8098 12.3118,35.6114 15.62,36.3975 C15.73,36.4237 15.883,36.4603 15.96,36.4789 C16.2146,36.5404 16.4961,36.595 16.8,36.6418 C16.965,36.6672 17.1978,36.7042 17.3173,36.724 C17.4369,36.7438 17.5998,36.76 17.6794,36.76 L17.8241,36.76 L17.8718,36.47 C17.898,36.3105 17.9468,35.982 17.9803,35.74 C18.086,34.9744 18.1252,34.7025 18.1426,34.6139 C18.1581,34.5351 18.1383,34.5256 17.9098,34.5025 C17.1132,34.4218 15.4367,34.0464 14.94,33.8377 C14.896,33.8192 14.7712,33.7752 14.6627,33.74 C12.4627,33.0262 10.1234,31.4103 8.2776,29.3296 L8.02,29.0391 L7.8753,29.1696" id="path3" fill="#49BECA"></path>
                        <path d="M18.84,2.4621 C18.807,2.4718 18.528,2.498 18.22,2.5202 C17.4373,2.5768 17.0913,2.6154 17.0565,2.6502 C17.0137,2.693 17.0859,2.6881 17.6217,2.6122 C18.3117,2.5144 21.0459,2.5147 21.732,2.6126 C22.2584,2.6878 22.3469,2.6936 22.3035,2.6502 C22.2731,2.6198 22.0603,2.5939 21.24,2.5206 C20.7486,2.4766 18.9401,2.4326 18.84,2.4621 M16.6,2.72 C16.5234,2.7695 16.6273,2.7704 16.86,2.7223 L17.02,2.6892 L16.84,2.6852 C16.741,2.683 16.633,2.6987 16.6,2.72 M22.46,2.72 C22.6463,2.7674 22.8333,2.7674 22.76,2.72 C22.727,2.6987 22.619,2.6831 22.52,2.6853 C22.3558,2.6891 22.3506,2.6922 22.46,2.72 M16.18,2.8 C16.0718,2.8465 16.2948,2.8465 16.44,2.8 C16.5309,2.7709 16.5273,2.7679 16.4,2.7668 C16.323,2.7662 16.224,2.7811 16.18,2.8 M22.92,2.8 C23.0652,2.8465 23.2882,2.8465 23.18,2.8 C23.136,2.7811 23.037,2.7662 22.96,2.7668 C22.8327,2.7679 22.8291,2.7709 22.92,2.8 M15.68,2.9039 C15.0663,3.062 14.8127,3.1307 14.74,3.1585 C14.696,3.1754 14.399,3.2753 14.08,3.3804 C13.761,3.4856 13.419,3.6068 13.32,3.6498 C13.221,3.6928 13.104,3.7419 13.06,3.7589 C12.6604,3.9135 11.5656,4.4559 11.0902,4.7349 C10.6376,5.0005 9.7141,5.592 9.68,5.6382 C9.669,5.6531 9.57,5.7264 9.46,5.8011 C8.6474,6.353 7.3451,7.5748 6.4979,8.5802 C5.4017,9.8809 4.5876,11.2072 3.8095,12.96 C3.6968,13.2137 3.3066,14.2855 3.2051,14.62 C3.0295,15.1984 2.8363,15.9975 2.7263,16.6 C2.6197,17.1843 2.6,17.3143 2.6,17.4347 C2.6,17.5061 2.5833,17.64 2.5628,17.7323 C2.4444,18.2668 2.4451,21.5783 2.5638,21.6971739 C2.5727,21.7061 2.5813,20.8914 2.5829,19.8867 C2.5858,17.9866 2.6023,17.7317 2.7942,16.62 C2.8524,16.2825 2.9999,15.6035 3.0666,15.3656 C3.1014,15.2415 3.1386,15.0813 3.1493,15.0096 C3.1601,14.9379 3.1849,14.8694 3.2044,14.8573 C3.224,14.8452 3.24,14.7924 3.24,14.74 C3.24,14.6876 3.258,14.6336 3.28,14.62 C3.302,14.6064 3.32,14.5524 3.32,14.5 C3.32,14.4476 3.338,14.3936 3.36,14.38 C3.382,14.3664 3.4,14.3124 3.4,14.26 C3.4,14.2076 3.418,14.1536 3.44,14.14 C3.462,14.1264 3.48,14.0801 3.48,14.0371 C3.48,13.9941 3.4969,13.9277 3.5175,13.8895 C3.5381,13.8513 3.6026,13.685 3.6608,13.52 C3.719,13.355 3.8011,13.1435 3.8433,13.05 C3.8855,12.9565 3.9545,12.8035 3.9966,12.71 C4.1461,12.3781 4.5634,11.5373 4.6666,11.36 C4.7242,11.261 4.8165,11.099 4.8717,11 C4.9268,10.901 5.0233,10.7448 5.086,10.6528 C5.1487,10.5608 5.2,10.4746 5.2,10.4611 C5.2,10.4476 5.2182,10.4149 5.2404,10.3883 C5.2626,10.3617 5.3819,10.189 5.5055,10.0045 C5.6291,9.8199 5.7537,9.6399 5.7822,9.6045 C5.8108,9.569 5.9288,9.4149 6.0444,9.262 C6.5328,8.6157 6.9603,8.1399 8.04,7.0404 C8.761,6.3062 10.3036,5.2042 11.54,4.5403 C11.738,4.4339 11.954,4.3176 12.02,4.2817 C12.086,4.2458 12.257,4.1652 12.4,4.1026 C12.7112,3.9663 12.9721,3.8518 13.1531,3.772 C13.4324,3.6488 14.3888,3.3175 14.8,3.2015 C14.899,3.1736 15.025,3.1369 15.08,3.12 C15.1773,3.0901 15.3318,3.0491 15.66,2.9661 C15.748,2.9439 15.883,2.9083 15.96,2.8869 C16.1933,2.8223 15.9362,2.8379 15.68,2.9039 M23.32,2.88 C23.353,2.9013 23.4237,2.9191 23.4772,2.9194 C23.5306,2.9197 23.6296,2.9368 23.6972,2.9573 C23.7647,2.9778 23.901,3.0162 24,3.0427 C24.3275,3.1302 24.4143,3.1568 25.12,3.3852 C25.505,3.5098 25.8371,3.6271 25.858,3.6459 C25.8789,3.6646 25.9189,3.68 25.9468,3.68 C25.9748,3.68 26.0927,3.7227 26.2088,3.775 C26.325,3.8272 26.591,3.946 26.8,4.0388 C27.8925,4.5244 29.3404,5.3985 30.2001,6.0915 C30.2332,6.1182 30.3412,6.2028 30.4401,6.2796 C30.5391,6.3564 30.6638,6.4589 30.7172,6.5074 C30.7707,6.5559 30.9089,6.6731 31.0242,6.7678 C31.2962,6.9911 32.3551,8.0595 32.6618,8.42 C32.7928,8.574 32.9094,8.709 32.921,8.72 C32.959,8.7563 33.346,9.2589 33.3775,9.313 C33.3965,9.3456 33.3722,9.4071 33.3142,9.473 L33.22,9.58 L33.33,9.483 C33.4791,9.3516 33.4778,9.3476 33.1652,8.9494 C32.2891,7.8337 30.8592,6.4623 29.84,5.7603 C29.763,5.7072 29.691,5.6535 29.68,5.6407 C29.6436,5.5987 28.6244,4.9382 28.38,4.7983 C28.248,4.7227 28.086,4.6296 28.02,4.5914 C27.7922,4.4594 26.5215,3.8444 26.3,3.759 C26.256,3.742 26.1517,3.6981 26.0683,3.6614 C25.8974,3.5862 24.8756,3.2379 24.6,3.161 C24.501,3.1333 24.375,3.0954 24.32,3.0767 C23.9174,2.9398 23.1916,2.797 23.32,2.88 M18.58,4.7629 C17.2196,4.9009 16.3862,5.0476 15.64,5.2805 C15.585,5.2976 15.405,5.3516 15.24,5.4004 C14.9234,5.494 14.2624,5.7289 14.06,5.8196 C13.994,5.8492 13.859,5.905 13.76,5.9437 C11.8536,6.6874 9.3593,8.576 8.0041,10.3018 C7.8667,10.4768 7.7279,10.6525 7.6957,10.6921 C7.5695,10.8475 6.8827,11.8711 6.7778,12.06 C6.7168,12.17 6.6307,12.323 6.5866,12.4 C6.4445,12.648 6.0607,13.4134 5.9648,13.64 C5.9136,13.761 5.8487,13.914 5.8205,13.98 C5.7924,14.046 5.7475,14.163 5.7207,14.24 C5.6692,14.3879 5.6248,14.5022 5.5614,14.65 C5.4794,14.8413 5.2183,15.7219 5.173,15.96 C5.1625,16.015 5.1386,16.096 5.1197,16.14 C5.1009,16.184 5.0745,16.283 5.0612,16.36 C5.0479,16.437 5.0197,16.5855 4.9985,16.69 C4.8739,17.3053 4.83,17.6017 4.7544,18.34 C4.6985,18.8866 4.692,20.708 4.7458,20.7618 C4.7708,20.7868 4.7849,20.4071 4.7855,19.6903 C4.7866,18.5543 4.8327,17.9925 5.0022,17.05 C5.1509,16.2235 5.477,15.0107 5.6771,14.54 C5.6958,14.496 5.7979,14.244 5.9039,13.98 C6.094,13.5068 6.5549,12.5703 6.7896,12.18 C7.1944,11.5071 7.4146,11.1785 7.7946,10.68 C8.4813,9.7794 9.2571,8.9672 10.0803,8.2872 C10.6873,7.7857 10.6673,7.8016 10.84,7.6814 C10.917,7.6277 10.989,7.5735 11,7.5607 C11.0269,7.5296 12.0767,6.84 12.0972,6.84 C12.1061,6.84 12.2813,6.745 12.4867,6.6288 C12.8285,6.4354 13.5364,6.08 13.5797,6.08 C13.5896,6.08 13.7018,6.0331 13.8289,5.9759 C14.1655,5.8242 14.3077,5.7666 14.56,5.68 C14.637,5.6536 14.736,5.6176 14.78,5.6 C14.9543,5.5304 15.1129,5.4787 15.4,5.3978 C17.4406,4.8226 19.0411,4.6782 21.32,4.8635 C21.507,4.8787 21.65,4.8801 21.6378,4.8667 C21.5451,4.7646 19.3106,4.6888 18.58,4.7629 M21.687,4.9003 C21.6981,4.9115 21.8316,4.9387 21.9836,4.9607 C22.4787,5.0327 22.7827,5.0955 23.52,5.2784 C23.8052,5.3491 24.3797,5.524 24.58,5.6011 C24.624,5.6181 24.723,5.6536 24.8,5.68 C24.961,5.7353 25.0444,5.7679 25.24,5.8521 C25.317,5.8853 25.497,5.9612 25.64,6.0208 C26.1646,6.2397 26.4503,6.3872 27.3856,6.9219 C27.5222,7 28.3275,7.5274 28.36,7.5601 C28.371,7.5712 28.488,7.6611 28.62,7.76 C28.752,7.8589 28.869,7.9488 28.88,7.9599 C28.891,7.971 28.99,8.0509 29.1,8.1377 C29.7576,8.656 30.6906,9.5886 31.2223,10.2588 C31.309,10.3682 31.407,10.4915 31.44,10.533 C31.473,10.5744 31.5542,10.6704 31.6204,10.7463 L31.7409,10.8843 L31.8604,10.7523 C31.9525,10.6507 31.9564,10.641 31.8774,10.7101 C31.7333,10.8364 31.7303,10.8346 31.431,10.4477 C29.5302,7.9906 26.7666,6.1413 23.7,5.2744 C23.612,5.2495 23.486,5.214 23.42,5.1955 C22.8133,5.025 21.606,4.8194 21.687,4.9003 M8.13,13.3065 C8.0907,13.3224 8.08,13.9197 8.08,16.1045 L8.08,18.8823 L8.63,18.8711 L9.18,18.86 L9.2018,17.56 C9.2251,16.1664 9.2387,16.0668 9.4347,15.8522 C9.6748,15.5893 10.2254,15.5461 10.4312,15.7739 C10.5856,15.9449 10.6,16.087 10.6,17.4427 C10.6,19.0562 10.5259,18.88 11.2043,18.88 L11.76,18.88 L11.76,17.3019 C11.76,16.2122 11.7459,15.6891 11.7144,15.6119 C11.5849,15.2944 11.5375,15.2148 11.3943,15.0744 C10.9068,14.5966 9.9238,14.5472 9.31,14.9697 L9.2,15.0454 L9.2,14.2041 C9.2,13.4133 9.1954,13.3603 9.1226,13.3214 C9.0457,13.2803 8.2256,13.2679 8.13,13.3065 M24.8652,13.3707 C24.7759,13.4222 24.67,13.5325 24.6152,13.6311 C24.2453,14.296 25.2573,14.8619 25.67,14.2209 C26.0009,13.7069 25.3938,13.0656 24.8652,13.3707 M25.38,13.4 C25.9259,13.6643 25.76,14.44 25.1576,14.44 C24.5566,14.44 24.3803,13.6578 24.9214,13.3919 C25.1034,13.3025 25.1814,13.3039 25.38,13.4 M9.1508,14.25 C9.1567,14.7285 9.1714,15.12 9.1834,15.12 C9.1955,15.12 9.2627,15.0763 9.3327,15.0228 C9.8565,14.6233 10.8166,14.6403 11.3108,15.0579 C11.6867,15.3756 11.7268,15.6095 11.7119,17.4 L11.7,18.82 L11.2,18.82 L10.7,18.82 L10.68,17.46 C10.657,15.8953 10.6461,15.8372 10.3417,15.6589 C9.9298,15.4175 9.3871,15.6511 9.2156,16.1437 C9.1743,16.2624 9.1611,16.6006 9.1606,17.5492 L9.16,18.7985 L9.07,18.8209 C9.0205,18.8332 8.791,18.8381 8.56,18.8317 L8.14,18.82 L8.1297,16.0888 L8.1194,13.3576 L8.6297,13.3688 L9.14,13.38 L9.1508,14.25 M21.92,14.6989 C20.9673,14.8819 20.4361,15.5859 20.6493,16.3831 C20.7777,16.8632 21.1968,17.0959 22.48,17.3994 C22.9794,17.5176 23.0882,17.5929 23.0722,17.8094 C23.0542,18.0526 22.9278,18.1133 22.4324,18.1171 C22.2137,18.1187 22.0339,18.1026 22.02,18.08 C22.0064,18.058 21.9669,18.04 21.9323,18.04 C21.862,18.04 21.6801,17.8467 21.68,17.7719 C21.6798,17.5442 21.6196,17.52 21.0536,17.52 C20.6564,17.52 20.5186,17.5328 20.5144,17.57 C20.4783,17.8931 20.5903,18.2069 20.8453,18.4966 C21.6257,19.3831 23.8126,19.1223 24.1704,18.1 C24.4715,17.2396 23.918,16.5383 22.78,16.3386 C22.692,16.3231 22.521,16.2838 22.4,16.2513 C22.279,16.2187 22.135,16.1823 22.08,16.1703 C21.7825,16.1058 21.643,15.7982 21.85,15.6631 C22.2338,15.4128 22.8552,15.5441 22.9781,15.9015 L23.0326,16.06 L23.5663,16.06 C24.1772,16.06 24.1791,16.0586 24.0768,15.6841 C23.8721,14.9341 22.9318,14.5046 21.92,14.6989 M13.64,14.7034 C12.985,14.8209 12.408,15.2772 12.2029,15.84 C12.1749,15.917 12.1376,16.016 12.1202,16.06 C11.9746,16.4269 11.9741,17.322 12.1192,17.7 C12.7268,19.2832 15.1759,19.5194 15.9016,18.0648 C15.9929,17.8817 15.9665,17.8409 15.8724,18.0196 C15.3284,19.0516 13.7031,19.285 12.6818,18.4776 C12.2595,18.1439 12.1112,17.7435 12.1048,16.92 C12.0936,15.4777 12.7522,14.7456 14.06,14.7465 C15.299,14.7472 15.9984,15.4484 16.0149,16.706 L16.02,17.1 L14.58,17.12 L13.14,17.14 L13.1504,17.3372 C13.1903,18.0909 14.2005,18.4268 14.7717,17.8762 L14.9753,17.68 L15.4676,17.68 C15.9483,17.68 15.96,17.6821 15.96,17.768 C15.96,17.8335 15.9716,17.8444 16.0053,17.8107 C16.1371,17.6789 16.016,17.64 15.4744,17.64 L14.9463,17.64 L14.7778,17.8158 C14.2864,18.3287 13.3821,18.1162 13.2015,17.4454 C13.1199,17.1425 13.0323,17.16 14.6341,17.16 L16.0707,17.16 L16.0941,17.0705 C16.1672,16.791 15.973,15.8667 15.7753,15.5529 C15.3619,14.8967 14.4919,14.5505 13.64,14.7034 M18.36,14.7178 C18.1099,14.7554 17.8501,14.8868 17.652,15.0758 L17.484,15.236 L17.472,15.028 L17.46,14.82 L16.92,14.82 L16.38,14.82 L16.369,17.5 C16.3629,18.974 16.3679,20.221 16.38,20.2712 C16.4018,20.361 16.4095,20.3622 16.9311,20.3512 L17.46,20.34 L17.4707,19.3907 L17.4814,18.4414 L17.6243,18.5995 C18.494,19.5622 20.3614,18.6466 20.3153,17.2801 C20.3111,17.1557 20.3065,17.1625 20.2742,17.34 C20.2197,17.6396 20.1647,17.8129 20.0302,18.11 C19.6457,18.9587 18.2855,19.2263 17.6623,18.576 C17.5696,18.4792 17.4816,18.4 17.4669,18.4 C17.4521,18.4 17.44,18.8325 17.44,19.3612 L17.44,20.3224 L16.93,20.3112 L16.42,20.3 L16.4097,17.57 L16.3994,14.84 L16.8979,14.84 L17.3963,14.84 L17.4082,15.11 L17.42,15.38 L17.5976,15.1884 C17.9426,14.8162 18.6746,14.6305 19.1081,14.8051 C19.7932,15.081 20.0943,15.4511 20.259,16.22 C20.2999,16.4106 20.3114,16.4324 20.3152,16.3262 C20.3485,15.3911 19.349,14.5689 18.36,14.7178 M23.1756,14.845 C23.6705,15.0197 23.9069,15.2622 24.037,15.7286 C24.1212,16.0303 24.1077,16.04 23.6045,16.04 C23.1133,16.04 23.04,16.0239 23.04,15.9164 C23.04,15.46 21.9003,15.3247 21.7201,15.7597 C21.6111,16.023 21.7706,16.1499 22.4,16.3007 C23.8583,16.6501 24.1824,16.8943 24.178,17.64 C24.1728,18.5124 23.5727,18.955 22.3906,18.9586186 C21.2991,18.9619 20.6302,18.526 20.5676,17.7706 L20.5501,17.56 L21.0563,17.56 C21.5033,17.56 21.5651,17.5682 21.5846,17.63 C21.7244,18.0719 21.8857,18.175 22.439,18.1758 C22.9594,18.1766 23.16,18.0667 23.16,17.7808 C23.16,17.5532 23.0232,17.4863 22.0169,17.2224 C20.8828,16.925 20.5516,16.5812 20.6868,15.8415 C20.8526,14.9343 22.0594,14.4511 23.1756,14.845 M24.6,16.84 L24.6,18.8822 L25.17,18.8711 L25.74,18.86 L25.74,16.84 L25.74,14.82 L25.17,14.8089 L24.6,14.7978 L24.6,16.84 M25.6704,16.83 L25.66,18.82 L25.16,18.82 L24.66,18.82 L24.6496,16.83 L24.6393,14.84 L25.16,14.84 L25.6807,14.84 L25.6704,16.83 M13.6623,15.6419 C13.3798,15.7828 13.16,16.0881 13.16,16.3396 L13.16,16.44 L14.06,16.44 L14.96,16.44 L14.9591,16.33 C14.9548,15.7843 14.1901,15.3785 13.6623,15.6419 M14.3438,15.6589 C14.6285,15.7435 14.8548,15.9943 14.8859,16.26 L14.9,16.38 L14.0466,16.3908 L13.1933,16.4016 L13.2205,16.2708 C13.3256,15.7661 13.8122,15.501 14.3438,15.6589 M17.98,15.6923 C17.5337,15.9575 17.4274,16.1852 17.4253903,16.88 C17.4227,17.8146 17.9853,18.3352 18.6681,18.03 C19.4212,17.6935 19.4334,16.0114 18.6851,15.6967 C18.5231,15.6286 18.0917,15.6259 17.98,15.6923 M18.6307,15.7419 C19.3701,16.0508 19.3843,17.6748 18.6503,17.9815 C17.9829,18.2603 17.48,17.7973 17.48,16.9038 C17.48,15.9561 17.9669,15.4645 18.6307,15.7419 M20.3324,16.78 C20.3326,16.912 20.3401,16.9612 20.349,16.8893 C20.3579,16.8174 20.3577,16.7094 20.3486,16.6493 C20.3395,16.5892 20.3322,16.648 20.3324,16.78 M8.0984,20.41 C8.0879,20.4375 8.0839,21.684 8.0896,23.18 L8.1,25.9 L8.64,25.9 L9.18,25.9 L9.1921,25.7122 L9.2042,25.5244 L9.3424,25.6774 C9.7353,26.1123 10.673,26.1653 11.24,25.7848 C12.4013,25.0053 12.3344,22.4902 11.1372,21.9246 C10.504,21.6255 9.8407,21.6926 9.3802,22.1023 C9.2955,22.1777 9.2355,22.2488 9.2469,22.2602 C9.2583,22.2717 9.3301,22.2223 9.4063,22.1505 C9.7394,21.8367 10.5227,21.6929 10.9039,21.8756 C10.9678,21.9062 11.0796,21.9602 11.1523,21.9956 C12.1688,22.4902 12.3393,24.6387 11.435,25.5574 C10.8853,26.1159 9.8503,26.1473 9.3646,25.6204 C9.1797,25.4198 9.16,25.4262 9.16,25.6867 L9.16,25.88 L8.64,25.88 L8.12,25.88 L8.12,23.14 L8.12,20.4 L8.64,20.4 L9.16,20.4 L9.16,21.3576 C9.16,21.8843 9.1735,22.3236 9.19,22.3339 C9.2211,22.3532 9.2118,20.4983 9.1803,20.41 C9.1673,20.3735 9.0218,20.36 8.64,20.36 C8.2588,20.36 8.1123,20.3735 8.0984,20.41 M26.12,21.2522 C26.12,22.2668 26.1264,22.2428 25.9049,22.0635 C25.4831,21.722 24.8405,21.6272 24.4,21.8415 C24.367,21.8575 24.2881,21.8951 24.2248,21.9249 C23.8156,22.1174 23.311,22.8772 23.3228,23.2827 C23.3244,23.3362 23.3584,23.2656 23.3984,23.1258 C23.6498,22.2461 24.1736,21.8193 25,21.8208 C25.4826,21.8217 25.718,21.9105 25.9561,22.1816 C26.1369,22.3876 26.1386,22.3801 26.1521,21.3356 L26.1641,20.3976 L26.6721,20.4088 L27.18,20.42 L27.1903,23.15 L27.2006,25.88 L26.7003,25.88 L26.2,25.88 L26.2,25.64 C26.2,25.3503 26.1969,25.3497 25.9647,25.5958 C25.4133,26.1804 24.5011,26.1646 23.883,25.5597 C23.4681,25.1538 23.2976,24.6607 23.3043,23.8869 C23.3067,23.6061 23.2941,23.4166 23.2749,23.4469 C23.2296,23.5184 23.2307,24.343 23.2764,24.4972 C23.2964,24.5647 23.3336,24.692 23.3591,24.78 C23.7085,25.986 25.2108,26.4882 25.9757,25.6548 C26.1395,25.4764 26.16,25.4837 26.16,25.72 L26.16,25.92 L26.7003,25.92 L27.2405,25.92 L27.2303,23.15 L27.22,20.38 L26.67,20.3689 L26.12,20.3577 L26.12,21.2522 M4.8023,21.0633 C4.8036,21.1495 4.8203,21.292 4.8394,21.38 C4.8652,21.4986 4.8684,21.4624 4.8519,21.24 C4.8277,20.9147 4.7986,20.811 4.8023,21.0633 M4.8887,21.78 C4.8883,21.846 4.9024,21.945 4.92,22 L4.952,22.1 L4.9513,22 C4.9509,21.945 4.9368,21.846 4.92,21.78 L4.8895,21.66 L4.8887,21.78 M18.62,21.777 C18.2975,21.8747 18.1406,21.9847 17.9405,22.2533 C17.8253,22.408 17.8052,22.3886 17.7919,22.11 L17.78,21.86 L17.2711,21.8488 C16.6452,21.8351 16.7152,21.5624 16.7289,23.96 L16.74,25.9 L17.29,25.9111 L17.84,25.9223 L17.8307,24.8711 L17.8214,23.82 L17.81,24.8512 L17.7986,25.8824 L17.2893,25.8712 L16.78,25.86 L16.78,23.88 L16.78,21.9 L17.26,21.9 L17.74,21.9 L17.7517,22.21 C17.7644,22.5473 17.7874,22.5798 17.8903,22.4056 C18.1067,22.0393 18.4064,21.8449 18.8063,21.8113 L19.08,21.7884 L19.08,22.3142 L19.08,22.84 L18.83,22.8402 C18.2382,22.8408 17.8366,23.1419 17.8437,23.58 C17.8462,23.7365 17.9129,23.5995 17.9172,23.4289 C17.9246,23.1357 18.3725,22.88 18.8788,22.88 L19.1222,22.88 L19.1111,22.31 L19.1,21.74 L18.94,21.7343 C18.852,21.7312 18.708,21.7504 18.62,21.777 M20.68,21.785 C20.0497,21.8653 19.6264,22.2551 19.4549,22.9133 C19.3796,23.2023 19.3755,23.2 19.9632,23.2 L20.4817,23.2 L20.5251,23.09 C20.6033,22.892 20.6259,22.8611 20.7597,22.77 C21.0049,22.603 21.6488,22.6722 21.7586,22.8773 C21.9146,23.1688 21.7276,23.3466 21.18,23.4274 C21.0032,23.4534 20.9952,23.4585 21.1108,23.471 C21.604,23.5244 22.0124,23.131 21.781,22.8254 C21.489,22.44 20.4811,22.645 20.4801,23.09 C20.48,23.153 20.4292,23.16 19.9746,23.16 L19.4691,23.16 L19.495,22.97 C19.6235,22.0259 20.858,21.5213 22.0341,21.9321 C22.8445,22.2151 22.879,22.3146 22.8796,24.37 L22.88,25.88 L22.38,25.88 L21.88,25.88 L21.88,25.68 C21.88,25.437 21.8876,25.4374 21.5882,25.6625 C20.9706,26.1268 20.1918,26.1465 19.6952,25.7104 C19.2522,25.3215 19.2316,24.4061 19.6562,23.9817 C19.8976,23.7406 20.0826,23.6642 20.76,23.5263 C20.934,23.4908 20.9353,23.4895 20.8,23.4855 C19.9389,23.4602 19.3097,24.0326 19.3126893,24.8388 C19.317,26.002 20.7018,26.5067 21.6392,25.6867 C21.7935,25.5517 21.8384,25.5739 21.8394,25.7857 C21.8398,25.863 21.8644,25.9208 21.9033,25.9357 C21.9979,25.972 22.812,25.9638 22.8717,25.926 C22.9729,25.8618 22.921,22.7054 22.815,22.4763 C22.6776,22.179 22.4891,22.0373 21.9972,21.8611 C21.819,21.7973 20.9693,21.7482 20.68,21.785 M29.02,21.7866 C28.932,21.7969 28.8429,21.8221 28.822,21.8427 C28.8011,21.8632 28.7521,21.88 28.7132,21.88 C28.3229,21.88 27.854,22.5075 27.7866,23.12 C27.7811,23.1702 27.867,23.1818 28.3103,23.1912 L28.8407,23.2023 L28.8846,23.0912 C28.9635,22.8917 28.9858,22.8612 29.1197,22.77 C29.3446,22.6169 29.8717,22.6516 30.09,22.8339 C30.2462,22.9644 30.1602,23.254 29.94,23.3386 C29.8901,23.3577 29.8786,23.3763 29.9094,23.3878 C30.1018,23.4597 30.2806,23.0654 30.1588,22.8378 C29.9336,22.417 28.84,22.6478 28.84,23.116 C28.84,23.1456 28.6767,23.16 28.34,23.16 C27.7728,23.16 27.7983,23.1801 27.8966,22.811 C28.0805,22.1201 28.5855,21.8212 29.56,21.8265 C30.4078,21.8311 30.893,22.0342 31.1096,22.4751 L31.22,22.7 L31.2317,24.29 L31.2434,25.88 L30.7417,25.88 L30.24,25.88 L30.24,25.68 C30.24,25.4378 30.2562,25.4388 29.9516,25.663 C28.9102,26.4297 27.6828,25.9458 27.7263,24.7858 C27.7546,24.031 28.1488,23.6714 29.1,23.5331 C29.2582,23.51 29.276,23.5008 29.1852,23.4889 C28.7413,23.4305 27.9764,23.8179 27.8026,24.189 C27.774,24.2501 27.7348,24.3313 27.7153,24.3695 C27.6372,24.5231 27.674,25.2208 27.77,25.4062 C28.1565,26.1526 29.3141,26.2944 30.0128,25.681 C30.1695,25.5434 30.2,25.5566 30.2,25.7624 C30.2,25.8614 30.2212,25.9196 30.2633,25.9357 C30.3579,25.972 31.172,25.9638 31.2317,25.926 C31.3325,25.862 31.2811,22.7055 31.1755,22.4773 C31.0335,22.1704 30.8637,22.0425 30.3572,21.8611 C30.1759,21.7961 29.3374,21.7494 29.02,21.7866 M12.4554,21.8975 C12.3814,22.0903 12.4652,25.0246 12.5509,25.24 C12.8861,26.0827 14.0898,26.3144 14.8152,25.6759 C15.0385,25.4793 15.04,25.4796 15.04,25.72 L15.04,25.92 L15.58,25.92 L16.12,25.92 L16.12,23.8789 L16.12,21.8377 L15.57,21.8489 L15.02,21.86 L14.998,23.18 C14.9705,24.8242 14.934,24.9362 14.3846,25.06 C13.6617,25.2228 13.5643,24.9965 13.5618,23.15 L13.56,21.84 L13.0187,21.84 C12.5851,21.84 12.4731,21.8514 12.4554,21.8975 M2.6086,22 C2.6083,22.077 2.6224,22.185 2.64,22.24 C2.685,22.3804 2.6865,22.2337 2.6423,22.02 L2.6092,21.86 L2.6086,22 M13.52,23.2129 C13.52,24.8597 13.544,24.9651 13.9517,25.1071 C14.331,25.2393 14.7643,25.0529 14.9348,24.6843 C15.0147,24.5115 15.0212,24.419 15.04,23.2 L15.06,21.9 L15.57,21.8888 L16.08,21.8776 L16.08,23.8788 L16.08,25.88 L15.58,25.88 L15.08,25.88 L15.08,25.6667 C15.08,25.3836 15.0654,25.3783 14.8527,25.585 C14.0656,26.35 12.7332,25.9915 12.5335,24.961 C12.4797,24.6834 12.4558,21.9576 12.5067,21.9067 C12.5213,21.892 12.7553,21.88 13.0267,21.88 L13.52,21.88 L13.52,23.2129 M4.9687,22.26 C4.9691,22.304 4.9832,22.394 5,22.46 C5.0274,22.5678 5.0306,22.5698 5.0313,22.48 C5.0317,22.425 5.0176,22.335 5,22.28 C4.9749,22.2016 4.9681,22.1973 4.9687,22.26 M2.6806,22.5433 C2.6809,22.6075 2.6996,22.687 2.7221,22.72 C2.7514,22.763 2.7554,22.7346 2.7362,22.62 C2.703,22.4216 2.6798,22.3896 2.6806,22.5433 M5.0662,22.78 C5.0796,22.868 5.0972,22.9475 5.1053,22.9567 C5.1356,22.991 5.1129,22.7768 5.0781,22.7 C5.0529,22.6442 5.0493,22.6685 5.0662,22.78 M9.8394,22.7163 C8.9537,22.8927 8.8519,24.6771 9.7046,25.078 C10.3869,25.3987 10.9408,24.8786 10.9378121,23.92 C10.9351,23.0277 10.5261,22.5796 9.8394,22.7163 M24.9474,22.7356 C24.1796,23.0214 24.1394,24.7403 24.8925,25.0822 C25.4852,25.3513 26.0246,24.9825 26.1605,24.2151 C26.3318,23.2478 25.6863,22.4605 24.9474,22.7356 M10.412,22.8248 C10.6447,22.9427 10.6758,22.9829 10.8344,23.3719 C10.891,23.5107 10.8957,24.4256 10.84,24.46 C10.818,24.4736 10.8,24.5119 10.8,24.5452 C10.8,24.8978 10.1973,25.2084 9.7889,25.0662 C9.0663,24.8145 8.9533,23.2002 9.6332,22.8411 C9.8213,22.7417 10.231,22.7332 10.412,22.8248 M25.6873,22.876 C26.338,23.2887 26.2569,24.7466 25.5667,25.0451 C24.9248,25.3226 24.3991,24.8135 24.4003976,23.9154 C24.4018,22.9808 25.0399,22.4655 25.6873,22.876 M2.7656,22.98 C2.7656,23.024 2.7811,23.096 2.8,23.14 L2.8344,23.22 L2.8344,23.14 C2.8344,23.096 2.8189,23.024 2.8,22.98 L2.7656,22.9 L2.7656,22.98 M5.1403,23.1401 C5.1551,23.206 5.182,23.314 5.2,23.38 C5.218,23.446 5.2443,23.5516 5.2584,23.6147 C5.2724,23.6778 5.2914,23.722 5.3005,23.7128 C5.3215,23.6918 5.1736,23.0802 5.1391,23.0458 C5.125,23.0317 5.1256,23.0741 5.1403,23.1401 M2.8468,23.36 C2.8488,23.4639 2.9118,23.6346 2.9132,23.54 C2.9138,23.496 2.8989,23.424 2.88,23.38 C2.8589,23.331 2.8461,23.3232 2.8468,23.36 M29.44,23.44 C29.3546,23.4674 29.3633,23.472 29.5,23.472 C29.588,23.472 29.705,23.4576 29.76,23.44 C29.8454,23.4126 29.8367,23.408 29.7,23.408 C29.612,23.408 29.495,23.4224 29.44,23.44 M2.9444,23.78 C2.9773,23.9271 3.0002,23.959 2.9994,23.8567 C2.9991,23.8145 2.9805,23.753 2.9582,23.72 C2.9285,23.6762 2.9248,23.6924 2.9444,23.78 M5.3234,23.82 C5.3222,23.864 5.3387,23.927 5.36,23.96 C5.4114,24.0395 5.4114,23.9396 5.36,23.82 L5.3256,23.74 L5.3234,23.82 M3.0258,24.1 C3.0392,24.188 3.0656,24.287 3.0844,24.32 C3.1258,24.3926 3.0834,24.1371 3.0346,24.02 C3.0136,23.9695 3.0103,23.9991 3.0258,24.1 M21.6771,24.0141 C21.6237,24.0416 21.445,24.0885 21.28,24.1184 C20.739,24.2165 20.3986,24.3933 20.4003929,24.5754 C20.4007,24.5999 20.448,24.5602 20.5057,24.487 C20.6312,24.3277 20.7013,24.2975 21.22,24.1793 C21.44,24.1292 21.6605,24.0753 21.71,24.0595 C21.8869,24.0029 21.8136,24.6937 21.6169,24.9361 C21.3336,25.2854 20.635,25.318 20.453,24.9903 C20.4169,24.9253 20.4024,24.9181 20.4014,24.9645 C20.3971,25.1591 20.7314,25.3112 21.0632,25.2658 C21.5759,25.1955 21.84,24.8663 21.84,24.2975 C21.84,23.9748 21.8202,23.9404 21.6771,24.0141 M30.0184,24.0182 C29.9533,24.047 29.792,24.0922 29.66,24.1186 C28.8747,24.2753 28.6744,24.4367 28.7381,24.8612 C28.7945,25.2374 29.1722,25.3816 29.6474,25.2083 C30.046,25.063 30.2,24.8147 30.2,24.3175 C30.2,23.9669 30.186,23.9438 30.0184,24.0182 M30.1594073,24.29 C30.1579,24.8932 29.8754,25.2012 29.3156,25.2097 C28.8223,25.2172 28.5975,24.8282 28.8844,24.4635 C28.9926,24.3259 29.0775,24.2929 29.6117,24.1807 C29.8491,24.1308 30.0546,24.0787 30.0683,24.065 C30.1347,23.9986 30.1599,24.0611 30.1594073,24.29 M3.1206,24.4633 C3.1209,24.5055 3.1395,24.567 3.1618,24.6 C3.1915,24.6438 3.1952,24.6276 3.1756,24.54 C3.1427,24.3929 3.1198,24.361 3.1206,24.4633 M20.3693,24.76 C20.3693,24.837 20.3775,24.8685 20.3876,24.83 C20.3976,24.7915 20.3976,24.7285 20.3876,24.69 C20.3775,24.6515 20.3693,24.683 20.3693,24.76 M5.943,25.56 C5.9809,25.659 6.0287,25.758 6.0491,25.78 C6.0695,25.802 6.055,25.739 6.017,25.64 C5.9791,25.541 5.9313,25.442 5.9109,25.42 C5.8905,25.398 5.905,25.461 5.943,25.56 M3.52,25.6531 C3.52,25.7034 3.8121,26.4202 3.8488,26.46 C3.8832,26.4972 3.8596,26.4318 3.6367,25.87 C3.5554,25.6653 3.52,25.5995 3.52,25.6531 M6.48,26.68 C6.5249,26.768 6.5706,26.84 6.5816,26.84 C6.5926,26.84 6.5649,26.768 6.52,26.68 C6.4751,26.592 6.4294,26.52 6.4184,26.52 C6.4074,26.52 6.4351,26.592 6.48,26.68 M6.6009,26.91 C6.6014,26.9265 6.6385,26.985 6.6833,27.04 L6.7648,27.14 L6.7014,27.01 C6.6411,26.8865 6.5989,26.8445 6.6009,26.91 M6.9822,27.55 C7.1959,27.8795 7.2524,27.96 7.2699,27.96 C7.2805,27.96 7.2571,27.9105 7.2178,27.85 C7.0041,27.5205 6.9476,27.44 6.9301,27.44 C6.9195,27.44 6.9429,27.4895 6.9822,27.55 M4.44,27.72 C4.4849,27.808 4.5306,27.88 4.5416,27.88 C4.5526,27.88 4.5249,27.808 4.48,27.72 C4.4351,27.632 4.3894,27.56 4.3784,27.56 C4.3674,27.56 4.3951,27.632 4.44,27.72 M4.7,28.2 C4.7341,28.266 4.7711,28.32 4.7821,28.32 C4.7931,28.32 4.7741,28.266 4.74,28.2 C4.7059,28.134 4.6689,28.08 4.6579,28.08 C4.6469,28.08 4.6659,28.134 4.7,28.2 M4.8824,28.51 C5.0601,28.8096 5.2898,29.16 5.3086,29.16 C5.3192,29.16 5.2895,29.1015 5.2426,29.03 C5.1958,28.9585 5.0852,28.7785 4.9969,28.63 C4.9087,28.4815 4.8268,28.36 4.815,28.36 C4.8031,28.36 4.8335,28.4275 4.8824,28.51 M7.6227,28.5 C7.76,28.68 7.7868,28.6803 7.6704,28.5005 C7.6207,28.4238 7.5656,28.3608 7.548,28.3604989 C7.5303,28.3602 7.564,28.423 7.6227,28.5 M7.88,28.84 C7.9497,28.928 8.0157,29 8.0267,29 C8.0377,29 7.9897,28.928 7.92,28.84 C7.8503,28.752 7.7843,28.68 7.7733,28.68 C7.7623,28.68 7.8103,28.752 7.88,28.84 M5.6232,29.65 C5.7056,29.7655 5.8083,29.896 5.8514,29.94 C5.8945,29.984 5.8361,29.8895 5.7216,29.73 C5.6072,29.5705 5.5045,29.44 5.4934,29.44 C5.4823,29.44 5.5407,29.5345 5.6232,29.65 M6.0442,30.2198 C6.1152,30.3187 6.2098,30.4312 6.2545,30.4698 C6.2992,30.5084 6.2485,30.4275 6.142,30.29 C5.918,30.001 5.8541,29.9552 6.0442,30.2198 M31.7789,31.89 L31.5,32.18 L31.79,31.9011 C32.0594,31.642 32.0983,31.6 32.0689,31.6 C32.0628,31.6 31.9323,31.7305 31.7789,31.89 M18.21,36.8276 C18.2485,36.8376 18.3115,36.8376 18.35,36.8276 C18.3885,36.8175 18.357,36.8093 18.28,36.8093 C18.203,36.8093 18.1715,36.8175 18.21,36.8276 M21.01,36.8276 C21.0485,36.8376 21.1115,36.8376 21.15,36.8276 C21.1885,36.8175 21.157,36.8093 21.08,36.8093 C21.003,36.8093 20.9715,36.8175 21.01,36.8276 M18.99,36.8682 C19.0395,36.8778 19.1205,36.8778 19.17,36.8682 C19.2195,36.8587 19.179,36.8509 19.08,36.8509 C18.981,36.8509 18.9405,36.8587 18.99,36.8682 M20.1705,36.8687 C20.2314,36.8779 20.3214,36.8777 20.3705,36.8682 C20.4197,36.8587 20.37,36.8511 20.26,36.8514 C20.15,36.8517 20.1097,36.8595 20.1705,36.8687" id="path4" fill="#FCC299"></path>
                    </g>
                </g>
            </g>
        </g>
    </g>
</svg>