<?xml version="1.0" encoding="UTF-8"?>
<svg width="52px" height="52px" viewBox="0 0 52 52" version="1.1" xmlns="http://www.w3.org/2000/svg" xmlns:xlink="http://www.w3.org/1999/xlink">
    <!-- Generator: Sketch 64 (93537) - https://sketch.com -->
    <title>n11</title>
    <desc>Created with Sketch.</desc>
    <defs>
        <rect id="path-1" x="0" y="0" width="44" height="44" rx="22"></rect>
        <filter x="-17.0%" y="-10.2%" width="134.1%" height="134.1%" filterUnits="objectBoundingBox" id="filter-2">
            <feOffset dx="0" dy="3" in="SourceAlpha" result="shadowOffsetOuter1"></feOffset>
            <feGaussianBlur stdDeviation="2" in="shadowOffsetOuter1" result="shadowBlurOuter1"></feGaussianBlur>
            <feColorMatrix values="0 0 0 0 0   0 0 0 0 0   0 0 0 0 0  0 0 0 0.105868253 0" type="matrix" in="shadowBlurOuter1"></feColorMatrix>
        </filter>
        <radialGradient cx="26.8463473%" cy="-2.49519212%" fx="26.8463473%" fy="-2.49519212%" r="55.2851721%" id="radialGradient-3">
            <stop stop-color="#EB9B9B" offset="0%"></stop>
            <stop stop-color="#EB453B" offset="100%"></stop>
        </radialGradient>
        <polygon id="path-4" points="0.823529412 0.823529412 22.2352941 0.823529412 22.2352941 22.2352941 0.823529412 22.2352941"></polygon>
        <path d="M0.672334353,11.6162686 C0.672334353,17.6704961 5.53630494,22.5795039 11.5326285,22.5795039 C17.5321695,22.5795039 22.3929226,17.6704961 22.3929226,11.6162686 C22.3929226,5.56204024 17.5321695,0.653033294 11.5326285,0.653033294 C5.53630494,0.653033294 0.672334353,5.56204024 0.672334353,11.6162686" id="path-6"></path>
        <path d="M12.7068019,35.1286765 L33.1470588,27.6879598 L23.5381432,1.28676471 L3.09788624,8.72426471 L12.7068019,35.1286765 Z M9.78906271,36.1902578 L12.7068019,35.1286765 L3.09788624,8.72426471 L0.180147059,9.785846 L9.78906271,36.1902578 Z M33.1470588,27.6879598 L36.0551471,26.629596 L26.4462314,0.228400941 L23.5381432,1.28676471 L33.1470588,27.6879598 Z" id="path-8"></path>
        <polygon id="path-10" points="0 0 12.3529412 0 12.3529412 25.5294118 0 25.5294118"></polygon>
    </defs>
    <g id="Page-1" stroke="none" stroke-width="1" fill="none" fill-rule="evenodd">
        <g id="Artboard" transform="translate(-37.000000, -2337.000000)">
            <g id="Platform-Logo-Setleri-Vector" transform="translate(41.000000, 2090.000000)">
                <g id="n11" transform="translate(0.000000, 248.000000)">
                    <g id="Rectangle">
                        <use fill="black" fill-opacity="1" filter="url(#filter-2)" xlink:href="#path-1"></use>
                        <use fill="#FFFFFF" fill-rule="evenodd" xlink:href="#path-1"></use>
                    </g>
                    <g id="n11-icon" transform="translate(11.000000, 7.000000)">
                        <g id="62194584164326158720-(1)">
                            <g id="301366">
                                <g id="Clipped" transform="translate(0.000000, 4.941176)">
                                    <circle id="Oval" fill="url(#radialGradient-3)" cx="11.5294118" cy="11.5294118" r="11.5294118"></circle>
                                    <mask id="mask-5" fill="white">
                                        <use xlink:href="#path-4"></use>
                                    </mask>
                                    <g id="Path"></g>
                                    <g mask="url(#mask-5)">
                                        <g>
                                            <mask id="mask-7" fill="white">
                                                <use xlink:href="#path-6"></use>
                                            </mask>
                                            <g id="Path"></g>
                                            <g mask="url(#mask-7)">
                                                <g transform="translate(-6.588235, -6.588235)">
                                                    <mask id="mask-9" fill="white">
                                                        <use xlink:href="#path-8"></use>
                                                    </mask>
                                                    <g id="Shape" stroke="none" fill="none"></g>
                                                    <g id="image5-link" stroke="none" stroke-width="1" fill="none" fill-rule="evenodd" mask="url(#mask-9)">
                                                        <g transform="translate(18.364706, 18.084706) scale(-1, 1) rotate(-180.000000) translate(-18.364706, -18.084706) translate(7.247059, 6.967059)"></g>
                                                    </g>
                                                </g>
                                            </g>
                                        </g>
                                    </g>
                                </g>
                                <path d="M18.9508274,17.1911765 C18.9508274,18.5808824 18.9572608,19.9673715 18.9476107,21.3570774 C18.9443932,21.7077206 18.8832725,22.0615813 18.8543196,22.4154412 C18.8028491,23.0137872 18.4554226,23.3290441 17.879596,23.4319853 C16.8630519,23.6185666 15.9269304,23.3612136 15.9204961,22.1645225 C15.9140627,21.2959559 15.8851107,20.4241726 15.8786765,19.5523901 C15.8722431,18.3267461 15.8851107,17.0978862 15.8754598,15.8722431 C15.8658088,14.7977941 15.5923715,14.5307902 14.5050549,14.5340078 C14.0257353,14.5340078 13.6139706,14.4439342 13.4080882,13.9646138 C13.1764706,13.4145225 13.3694853,12.8740813 13.9388785,12.6456804 C14.8299636,12.2853862 15.6631432,11.8575372 16.3998166,11.2270225 C16.6668196,10.9986215 17.0625,10.8860294 17.4195774,10.8152578 C18.1755519,10.6640627 18.9036114,11.1005792 18.9196957,11.8501195" id="Path" fill="#1C1C1B" fill-rule="nonzero"></path>
                                <path d="M8.910846,17.2490813 C8.910846,18.8157167 8.91406271,20.3791362 8.90762847,21.9457725 C8.90441176,22.4862136 8.86259212,23.0363049 8.28676471,23.3033088 C7.65625,23.5992647 6.95496365,23.6282167 6.42095588,23.2132353 C6.12178329,22.9816176 5.95128718,22.4250921 5.94163624,22.0101107 C5.89338235,20.0188421 5.91911765,18.0275735 5.91911765,16.0330882 C5.91911765,14.817096 5.64889706,14.5436579 4.43290482,14.5275735 C3.65119506,14.5179226 3.25551471,14.1544118 3.38097447,13.4273901 C3.42922835,13.1378676 3.69944894,12.7582725 3.966452,12.6488971 C4.87040482,12.278952 5.71001859,11.8285844 6.46599306,11.1980696 C6.942096,10.8056068 7.54687541,10.7863049 8.13556965,10.9149814 C8.62454024,11.0211401 8.90119506,11.5583638 8.90762847,12.3947608 C8.91727941,14.0128676 8.910846,15.6309745 8.910846,17.2490813" id="Path" fill="#1C1C1B" fill-rule="nonzero"></path>
                                <g id="Clipped" transform="translate(5.764706, 2.470588)">
                                    <mask id="mask-11" fill="white">
                                        <use xlink:href="#path-10"></use>
                                    </mask>
                                    <g id="Path"></g>
                                    <path d="M12.0151656,5.14466563 C10.2619489,4.00301376 8.43795976,3.30147682 6.34375,3.26176719 L6.34375,25.740731 C5.629596,25.8532421 5.63281271,25.8532421 5.63602941,25.1814872 C5.658548,18.1164806 5.68106659,11.0514749 5.70358435,3.98315936 C5.70358435,3.76806485 5.70358435,3.54966227 5.70358435,3.34449539 C4.50689318,3.07645554 2.88235294,3.53642572 0.119025529,4.9064078 C0.225184235,3.31471337 2.20358435,0.703804902 5.07950388,0.326562921 C8.53446671,-0.126788565 11.3074451,2.06716913 12.0151656,5.14466563" id="Path" fill="#1C1C1B" fill-rule="nonzero" mask="url(#mask-11)"></path>
                                </g>
                                <path d="M9.23253718,0.913602941 C9.23253718,1.48299612 8.85937541,1.92371365 8.37362153,1.91406271 C7.93290482,1.90762847 7.52114012,1.44117647 7.52435682,0.948989176 C7.52435682,0.331342118 7.82996365,-0.00321691176 8.38970588,4.82750978e-14 C8.93658129,4.82750978e-14 9.22931965,0.318474471 9.23253718,0.913602941" id="Path" fill="#1C1C1B" fill-rule="nonzero"></path>
                                <path d="M15.9623166,0.884650941 C15.96875,1.41222447 15.5666362,1.89476082 15.1034009,1.91406271 C14.6723344,1.93336376 14.1415441,1.36075388 14.160846,0.894301882 C14.1737136,0.453584353 14.6047794,0.00643382353 15.0261951,3.06058889e-14 C15.6116726,-0.0128676471 15.9526656,0.312040235 15.9623166,0.884650941" id="Path" fill="#1C1C1B" fill-rule="nonzero"></path>
                            </g>
                        </g>
                    </g>
                </g>
            </g>
        </g>
    </g>
</svg>