<?xml version="1.0" encoding="UTF-8"?>
<svg width="52px" height="52px" viewBox="0 0 52 52" version="1.1" xmlns="http://www.w3.org/2000/svg" xmlns:xlink="http://www.w3.org/1999/xlink">
    <title>pazarama_icon</title>
    <defs>
        <rect id="path-1" x="0" y="0" width="44" height="44" rx="21.2142857"></rect>
        <filter x="-17.0%" y="-10.2%" width="134.1%" height="134.1%" filterUnits="objectBoundingBox" id="filter-2">
            <feOffset dx="0" dy="3" in="SourceAlpha" result="shadowOffsetOuter1"></feOffset>
            <feGaussianBlur stdDeviation="2" in="shadowOffsetOuter1" result="shadowBlurOuter1"></feGaussianBlur>
            <feColorMatrix values="0 0 0 0 0   0 0 0 0 0   0 0 0 0 0  0 0 0 0.105868253 0" type="matrix" in="shadowBlurOuter1"></feColorMatrix>
        </filter>
    </defs>
    <g id="Page-1" stroke="none" stroke-width="1" fill="none" fill-rule="evenodd">
        <g id="Artboard" transform="translate(-34.000000, -3075.000000)">
            <g id="n11" transform="translate(38.000000, 3076.000000)">
                <g id="Rectangle">
                    <use fill="black" fill-opacity="1" filter="url(#filter-2)" xlink:href="#path-1"></use>
                    <use fill="#FFFFFF" fill-rule="evenodd" xlink:href="#path-1"></use>
                </g>
                <g id="Group" transform="translate(1.000000, 1.000000)"></g>
                <g id="Group" transform="translate(13.000000, 11.000000)" fill-rule="nonzero">
                    <path d="M7.22805678,1.19396105 C5.94486658,1.97559379 4.88023179,3.10393507 4.14273025,4.46390984 C3.38576497,5.84036023 2.99123223,7.40689938 3.00014865,9.00005546 C2.99120658,10.587765 3.38584247,12.1487521 4.14273025,13.518943 C4.88023179,14.8789178 5.94486658,16.0072591 7.22805678,16.7888918 C8.52679238,17.591153 10.0048843,18.0092941 11.5080903,17.9998433 C13.0112963,18.0092941 14.4893882,17.591153 15.7881238,16.7888918 C17.071314,16.0072591 18.1359488,14.8789178 18.8734503,13.518943 C19.6252758,12.147319 20.0143064,10.5862527 19.9995945,9.00005546 C20.0143634,7.40839518 19.625429,5.84175467 18.8734503,4.46390984 C18.1359488,3.10393507 17.071314,1.97559379 15.7881238,1.19396105 C14.4880725,0.396984835 13.009885,-0.0152229415 11.5080903,0.000429737709 C10.0062956,-0.0152229415 8.52810809,0.396984835 7.22805678,1.19396105 L7.22805678,1.19396105 Z M15.2884723,4.94531896 C16.2679785,6.03799476 16.8000327,7.4968646 16.768572,9.00368874 C16.798615,10.5083943 16.2598453,11.9633881 15.2721887,13.0448005 C14.3085247,14.1365253 12.9498773,14.7386249 11.5398006,14.6988496 C10.1210242,14.7355072 8.75376247,14.1346945 7.77570224,13.0448005 C6.76208949,11.9777476 6.20466644,10.5175399 6.23303898,9.00368874 C6.20716921,7.49332946 6.75824785,6.03597747 7.76113264,4.96257703 C8.74583506,3.87195438 10.1185202,3.27149282 11.5423717,3.30852793 C12.9528032,3.27087984 14.3128627,3.8651333 15.2884723,4.94531896 L15.2884723,4.94531896 Z" id="Shape-Copy" fill="#F219AF"></path>
                    <path d="M8.43340387e-06,24 L3.27076515,24 L3.27076515,15.0437863 C4.55189346,16.639905 6.47923243,17.5381049 8.49214036,17.4771096 C9.99224359,17.4844713 11.4668669,17.0787847 12.762617,16.3022501 C14.0494197,15.5429658 15.1169224,14.4463299 15.8560356,13.1244091 C16.6139359,11.7941517 17.008994,10.2787131 16.9998446,8.73738685 C17.0084383,7.19196508 16.6134987,5.67242243 15.8560356,4.33716395 C15.1169224,3.01524313 14.0494197,1.91860727 12.762617,1.15932297 C11.4656376,0.387604632 9.9909144,-0.0126391714 8.49214036,0.000304258148 C6.23741594,0.00146965448 4.07560303,0.923260304 2.48279908,2.56266966 C0.889995124,4.20207902 -0.00316608638,6.42465096 8.43340387e-06,8.74090703 L8.43340387e-06,24 Z M8.49214036,14.2658269 C7.07611629,14.2981806 5.71259485,13.7149413 4.7373762,12.6597455 C3.73273392,11.6177381 3.18064765,10.2028701 3.20651525,8.7365068 C3.18111239,7.27075033 3.7331636,5.85660686 4.7373762,4.81502816 C5.71078554,3.75713587 7.07552796,3.17337421 8.49214036,3.2089468 C9.90941927,3.17522792 11.2759414,3.75143051 12.2614678,4.79830731 C13.2534833,5.8530876 13.7930752,7.27200197 13.7597755,8.73826689 C13.7913879,10.2017848 13.2454064,11.6162102 12.2460478,12.6597455 C11.2728399,13.717407 9.90845702,14.3011481 8.49214036,14.2658269 L8.49214036,14.2658269 Z" id="Shape-Copy-2" fill="#0136F4"></path>
                    <path d="M6.23377016,9 L3,9 C3.05085387,3.98532334 6.85621001,-0.0396704923 11.5085685,0.000333537246 C16.1583825,-0.0421864979 19.9599467,3.98608455 20,8.99815278 L16.8502016,8.99815278 C16.8140994,7.50904099 16.2559607,6.08996429 15.2881552,5.02662509 C14.3107418,3.92995345 12.9506783,3.3266514 11.5402722,3.36412513 C10.1169583,3.3278476 8.74505886,3.93819712 7.75982863,5.04602092 C6.7936325,6.09968664 6.24624332,7.51762693 6.23377016,8.99907639 L6.23377016,9 Z" id="Path-Copy" fill="#F219AF"></path>
                </g>
                <g id="Bitmap" transform="translate(2.925481, 2.928571)"></g>
            </g>
        </g>
    </g>
</svg>