<?xml version="1.0" encoding="UTF-8"?>
<svg width="52px" height="52px" viewBox="0 0 52 52" version="1.1" xmlns="http://www.w3.org/2000/svg" xmlns:xlink="http://www.w3.org/1999/xlink">
    <!-- Generator: Sketch 64 (93537) - https://sketch.com -->
    <title>trendyol copy</title>
    <desc>Created with Sketch.</desc>
    <defs>
        <rect id="path-1" x="0" y="0" width="44.1" height="44.1" rx="21.2142857"></rect>
        <filter x="-17.0%" y="-10.2%" width="134.0%" height="134.0%" filterUnits="objectBoundingBox" id="filter-2">
            <feOffset dx="0" dy="3" in="SourceAlpha" result="shadowOffsetOuter1"></feOffset>
            <feGaussianBlur stdDeviation="2" in="shadowOffsetOuter1" result="shadowBlurOuter1"></feGaussianBlur>
            <feColorMatrix values="0 0 0 0 0   0 0 0 0 0   0 0 0 0 0  0 0 0 0.0360620471 0" type="matrix" in="shadowBlurOuter1"></feColorMatrix>
        </filter>
        <ellipse id="path-3" cx="19.2548077" cy="19.2857143" rx="19.2548077" ry="19.2857143"></ellipse>
    </defs>
    <g id="Page-1" stroke="none" stroke-width="1" fill="none" fill-rule="evenodd">
        <g id="Artboard" transform="translate(-30.000000, -60.000000)">
            <g id="Ptt" transform="translate(34.000000, 34.000000)">
                <g id="ptt" transform="translate(0.000000, 27.000000)">
                    <g id="trendyol-copy">
                        <g id="Rectangle">
                            <use fill="black" fill-opacity="1" filter="url(#filter-2)" xlink:href="#path-1"></use>
                            <use fill="#FFFFFF" fill-rule="evenodd" xlink:href="#path-1"></use>
                        </g>
                        <g id="Bitmap" transform="translate(1.925481, 2.892857)">
                            <mask id="mask-4" fill="white">
                                <use xlink:href="#path-3"></use>
                            </mask>
                            <use id="Mask" stroke="#FFFFFF" stroke-width="2.89285714" fill="#FFFFFF" xlink:href="#path-3"></use>
                            <path d="M13.7404223,27.5378387 C9.59052228,26.4645887 5.13057228,24.1988387 2.62632228,21.9092387 C1.83927228,21.1698887 1.21917228,20.5020887 1.29072228,20.4305387 C1.36227228,20.3828387 3.77112228,18.9756887 6.65697228,17.3061887 L11.9039723,14.3010887 L12.1663223,15.8036387 C13.3826723,22.2908387 18.4627223,26.4645887 25.1168723,26.4645887 C29.3144723,26.4645887 32.0095223,24.3419387 33.3689723,19.9535387 L33.8936723,18.2363387 L34.6330223,19.4288387 C35.0384723,20.0966387 35.3962223,20.7405887 35.3962223,20.9075387 C35.3962223,21.5037887 33.0827723,24.2465387 31.6517723,25.2959387 C29.5768223,26.8700387 27.5257223,27.5378387 24.6637223,27.5139887 C21.8255723,27.5139887 19.9652723,27.0369887 17.0317223,25.5821387 C14.3843723,24.2465387 11.8562723,21.9569387 10.5922223,19.7388887 C10.1867723,18.9756887 9.75747228,18.3555887 9.63822228,18.3555887 C9.35202228,18.3555887 5.10672228,20.7644387 5.10672228,20.9313887 C5.10672228,21.1698887 7.25322228,22.9586387 8.94657228,24.1511387 C10.5922223,25.2959387 12.0709223,26.0829887 14.8852223,27.3231887 C17.0078723,28.2771887 16.7455223,28.3248887 13.7404223,27.5378387 Z" id="Path" fill="#00A7CF" fill-rule="nonzero" mask="url(#mask-4)"></path>
                            <path d="M29.7437723,19.9535387 C29.6722223,16.5429887 28.0504223,14.3487887 24.1628723,12.5361887 C21.7778723,11.4152387 17.7233723,9.93653869 16.3162223,9.67418869 L15.4814723,9.50723869 L16.0777223,10.0319387 C16.4116223,10.3181387 17.6041223,11.0097887 18.7489223,11.5821887 C19.8698723,12.1545887 20.8954223,12.7508387 20.9908223,12.8939387 C21.2770223,13.3947887 20.5138223,13.6094387 18.9397223,13.4901887 L17.3894723,13.3470887 L18.1049723,13.9433387 C18.5104223,14.2772387 19.3451723,14.8973387 19.9652723,15.3027887 C20.8954223,15.9228887 21.0385223,16.0898387 20.7046223,16.2806387 C20.4899723,16.3998887 19.7267723,16.4237387 18.9874223,16.3283387 L17.6279723,16.1852387 L18.7966223,17.0199887 C19.4405723,17.4969887 20.0845223,17.8785887 20.2037723,17.8785887 C20.3468723,17.8785887 20.3945723,17.9262887 20.3230223,17.9978387 C20.0845223,18.2601887 18.0811223,17.3538887 16.8647723,16.4237387 C15.5291723,15.4220387 15.2191223,14.8496387 16.1492723,15.1119887 C16.4354723,15.1835387 17.2702223,15.3266387 17.9857223,15.3981887 L19.2974723,15.5412887 L18.1049723,14.8257887 C16.8886223,14.0864387 14.9806223,12.4646387 15.1475723,12.2976887 C15.1952723,12.2499887 15.8153723,12.2976887 16.5070223,12.4169387 C17.2225223,12.5600387 18.0811223,12.6315887 18.4150223,12.5838887 C18.9874223,12.5123387 18.8920223,12.4169387 17.5087223,11.6060387 C15.3383723,10.3181387 12.4048223,7.40843869 13.8835223,7.98083869 C14.0981723,8.05238869 15.6722723,8.41013869 17.3894723,8.74403869 C24.6875723,10.1273387 30.1492223,12.7746887 31.2463223,15.4220387 C31.7710223,16.6622387 31.6517723,18.3317387 30.9839723,19.7150387 C30.0061223,21.6468887 29.7676223,21.6945887 29.7437723,19.9535387 Z" id="Path" fill="#FEC52E" fill-rule="nonzero" mask="url(#mask-4)"></path>
                        </g>
                    </g>
                </g>
            </g>
        </g>
    </g>
</svg>