<?xml version="1.0" encoding="UTF-8"?>
<svg width="52px" height="52px" viewBox="0 0 52 52" version="1.1" xmlns="http://www.w3.org/2000/svg" xmlns:xlink="http://www.w3.org/1999/xlink">
    <!-- Generator: Sketch 64 (93537) - https://sketch.com -->
    <title>trendyol</title>
    <desc>Created with Sketch.</desc>
    <defs>
        <rect id="path-1" x="0" y="0" width="44" height="44" rx="22"></rect>
        <filter x="-17.0%" y="-10.2%" width="134.1%" height="134.1%" filterUnits="objectBoundingBox" id="filter-2">
            <feOffset dx="0" dy="3" in="SourceAlpha" result="shadowOffsetOuter1"></feOffset>
            <feGaussianBlur stdDeviation="2" in="shadowOffsetOuter1" result="shadowBlurOuter1"></feGaussianBlur>
            <feColorMatrix values="0 0 0 0 0   0 0 0 0 0   0 0 0 0 0  0 0 0 0.105868253 0" type="matrix" in="shadowBlurOuter1"></feColorMatrix>
        </filter>
    </defs>
    <g id="Page-1" stroke="none" stroke-width="1" fill="none" fill-rule="evenodd">
        <g id="Artboard" transform="translate(-37.000000, -2089.000000)">
            <g id="Platform-Logo-Setleri-Vector" transform="translate(41.000000, 2090.000000)">
                <g id="trendyol">
                    <g id="Rectangle">
                        <use fill="black" fill-opacity="1" filter="url(#filter-2)" xlink:href="#path-1"></use>
                        <use fill="#FFFFFF" fill-rule="evenodd" xlink:href="#path-1"></use>
                    </g>
                    <g id="ty-logo" transform="translate(4.000000, 15.000000)" fill-rule="nonzero">
                        <path d="M12.8415075,8.48623116 L8.77115578,8.48623116 C8.95748744,9.24874372 9.57798995,9.82492462 10.3839196,9.82492462 C10.8399279,9.82557613 11.2749475,9.6333658 11.5815075,9.29577889 L12.5647236,9.31658291 C12.1392958,10.1461322 11.285443,10.6678729 10.3531658,10.6679397 C8.95296482,10.6679397 7.85396985,9.45316583 7.85396985,8.07919598 C7.85396985,6.66180905 8.93939698,5.50130653 10.3703518,5.50130653 C11.0367808,5.5046566 11.6745829,5.77261173 12.1434445,6.24622303 C12.6123061,6.71983434 12.8738193,7.36030472 12.8704844,8.02673367 C12.8700047,8.18058711 12.8609453,8.33429488 12.8433166,8.48713568 L12.8415075,8.48623116 Z M10.360402,6.34160804 C9.56261307,6.34160804 8.82271357,6.97477387 8.77386935,7.77708543 L11.9460302,7.77708543 C11.8935678,6.97115578 11.158191,6.34160804 10.360402,6.34160804 L10.360402,6.34160804 Z" id="Shape" fill="#231F20"></path>
                        <path d="M16.9163819,10.5431156 L16.9163819,7.87477387 C16.9163819,7.04170854 16.6685427,6.33708543 15.6934673,6.33708543 C14.7889447,6.33708543 14.4,7.03718593 14.4,7.86120603 L14.4,10.538593 L13.4782915,10.538593 L13.4782915,5.63246231 L14.3375879,5.63246231 L14.3375879,6.15527638 L14.3547739,6.15527638 C14.7093467,5.68582915 15.2240201,5.50040201 15.7911558,5.50040201 C16.4912563,5.50040201 17.1479397,5.77175879 17.5278392,6.37688442 C17.7675377,6.74954774 17.8380905,7.20180905 17.8380905,7.6359799 L17.8380905,10.5431156 L16.9163819,10.5431156 Z" id="Path" fill="#231F20"></path>
                        <path d="M22.738794,10.5431156 L22.738794,9.84301508 L22.7207035,9.84301508 C22.3127638,10.4092462 21.6660302,10.6670352 20.9840201,10.6670352 C19.5123618,10.6670352 18.4305528,9.5680402 18.4305528,8.10542714 C18.4305528,6.64281407 19.4951759,5.50040201 20.9840201,5.50040201 C21.6036181,5.50040201 22.259397,5.73919598 22.6501508,6.23577889 L22.6673367,6.23577889 L22.6673367,3.98442211 L23.5890452,3.98442211 L23.5890452,10.5431156 L22.738794,10.5431156 Z M21.0364824,6.34160804 C20.061407,6.34160804 19.3522613,7.13939698 19.3522613,8.09638191 C19.3522613,9.01809045 20.0885427,9.82492462 21.0283417,9.82492462 C21.4844576,9.82277172 21.9210092,9.6393886 22.2418343,9.31517024 C22.5626595,8.99095188 22.7414398,8.55249521 22.7388229,8.09638191 C22.7388229,7.11226131 22.0386935,6.34160804 21.0364824,6.34160804 L21.0364824,6.34160804 Z" id="Shape" fill="#231F20"></path>
                        <polygon id="Path" fill="#231F20" points="26.2555779 12.1830151 25.298593 12.1830151 26.0158794 10.4454271 24.0584925 5.63246231 25.0498492 5.63246231 26.4943719 9.4441206 27.9750754 5.63246231 28.9673367 5.63246231 26.2555779 12.1830151"></polygon>
                        <path d="M31.5913568,10.6679397 C30.1441206,10.6679397 28.9411055,9.50653266 28.9411055,8.05296482 C28.9411055,6.59939698 30.1730653,5.50130653 31.5913568,5.50130653 C33.0268342,5.50130653 34.2407035,6.61748744 34.2407035,8.07105528 C34.2407035,9.47125628 33.0792965,10.6679397 31.5913568,10.6679397 Z M31.5913568,6.34251256 C30.8842208,6.33665918 30.2437031,6.75885132 29.9702976,7.41102083 C29.6968921,8.06319034 29.8448493,8.81593053 30.3447563,9.31609919 C30.8446632,9.81626785 31.5973258,9.96461904 32.2496384,9.69155497 C32.9019509,9.4184909 33.3244782,8.77819427 33.318995,8.07105528 C33.3170066,7.11758518 32.5448257,6.34499997 31.5913568,6.34251256 L31.5913568,6.34251256 Z" id="Shape" fill="#231F20"></path>
                        <polygon id="Path" fill="#231F20" points="34.9932663 10.5431156 34.9932663 3.98442211 35.9149749 3.98442211 35.9149749 10.5431156 34.9932663 10.5431156"></polygon>
                        <path d="M0.910854271,9.57437186 C0.942319487,9.70743657 0.993217766,9.83513944 1.06190955,9.95336683 C1.12330326,10.0516806 1.19958868,10.1398665 1.2880402,10.2147739 C1.59372437,10.4753845 1.98553742,10.612761 2.38703518,10.6001005 C2.80891791,10.6028606 3.22432071,10.4962832 3.59276382,10.2907538 L3.59276382,9.41065327 C3.2673413,9.61752186 2.89268929,9.73397619 2.50733668,9.7480402 C2.03879397,9.7480402 1.80090452,9.46311558 1.80090452,8.90050251 L1.80090452,6.49809045 L3.34311558,6.49809045 L3.34311558,5.64693467 L1.79728643,5.64693467 L1.79728643,4.07125628 L0.887336683,4.07125628 L0.887336683,5.64693467 L0,5.64693467 L0,6.49809045 L0.850251256,6.49809045 L0.850251256,8.67798995 C0.839359358,8.97867674 0.859668919,9.27968261 0.910854271,9.5761809 L0.910854271,9.57437186 Z" id="Path" fill="#231F20"></path>
                        <path d="M6.4881407,6.45557789 C6.77306533,6.45557789 7.08693467,6.61386935 7.42160804,6.92773869 L7.92090452,6.09557789 C7.51477387,5.72201005 7.02180905,5.55286432 6.73326633,5.55286432 L6.67085427,5.55286432 C6.34160804,5.55286432 5.79075377,5.55286432 5.33939698,6.27648241 L5.32040201,6.30723618 L5.32582915,5.64512563 L4.37336683,5.64512563 L4.37336683,10.5132663 L5.32582915,10.5132663 L5.32582915,7.96884422 C5.31793113,7.58590084 5.43934117,7.21147355 5.67045226,6.90603015 C5.89929648,6.60663317 6.17517588,6.45376884 6.48452261,6.45376884 L6.4881407,6.45557789 Z" id="Path" fill="#231F20"></path>
                        <path d="M26.380402,4.51718593 C26.3374056,4.52079966 26.2985196,4.49163513 26.2899497,4.44934673 L26.0457286,2.90351759 C25.9652261,2.39969849 26.0457286,1.98 26.3080402,1.63718593 C26.5703518,1.29437186 26.9538693,1.09447236 27.4432161,1.01577889 L33.8517588,0.000904522613 C33.8948771,-0.00313722405 33.934018,0.0262184735 33.9422111,0.0687437186 L34.4351759,3.16040201 C34.4387896,3.20339842 34.4096251,3.24228446 34.3673367,3.25085427 L26.380402,4.51718593 L26.380402,4.51718593 Z" id="Path" fill="#FF671D"></path>
                        <path d="M28.5259296,2.88904523 C28.4759141,3.08017084 28.3162524,3.222726 28.1207035,3.25085427 C27.8620101,3.29246231 27.5671357,3.14050251 27.5056281,2.76603015 C27.4513568,2.43226131 27.6295477,2.16361809 27.939799,2.11296482 C28.1358592,2.07591847 28.3343661,2.16418378 28.438191,2.33457286 L28.7484422,2.28482412 C28.5606495,1.92982332 28.1420228,1.76481848 27.7625137,1.89621306 C27.3830047,2.02760763 27.1560237,2.41613635 27.2279397,2.81125628 C27.2553796,3.02912793 27.3707272,3.22629997 27.5471977,3.35698724 C27.7236682,3.4876745 27.9459082,3.54050683 28.1623116,3.50321608 C28.5077315,3.44865648 28.7797144,3.17958639 28.8379899,2.83477387 L28.5259296,2.88542714 L28.5259296,2.88904523 Z" id="Path" fill="#FFFFFF"></path>
                        <path d="M29.720804,1.56030151 C29.2633756,1.62785417 28.946472,2.05227857 29.0116583,2.51005025 C29.0553332,2.85549975 29.3043934,3.13982501 29.6410858,3.2286002 C29.9777783,3.31737539 30.3346487,3.19281491 30.5429727,2.91380958 C30.7512967,2.63480425 30.7693377,2.25725116 30.5885662,1.95965325 C30.4077947,1.66205534 30.0644272,1.5040346 29.720804,1.56030151 Z M29.9487437,2.95055276 C29.6351639,3.00436952 29.3373165,2.79383151 29.2834279,2.48026401 C29.2295392,2.16669652 29.440009,1.86880088 29.7535641,1.81484039 C30.0671193,1.7608799 30.3650631,1.97128136 30.4190955,2.28482412 C30.4450586,2.43548471 30.4100809,2.59028735 30.3218636,2.71514885 C30.2336462,2.84001035 30.0994221,2.92469325 29.9487437,2.95055276 Z" id="Shape" fill="#FFFFFF"></path>
                        <path d="M33.438392,2.59688442 L33.2846231,1.65527638 C33.2167839,1.24190955 32.9390955,1.03386935 32.5411055,1.09899497 C32.3005025,1.13879397 32.1548744,1.24462312 32.0707538,1.44361809 L32.0644221,1.45899497 L32.0544724,1.44542714 C31.9423116,1.28080402 31.7044221,1.23648241 31.5307538,1.26452261 C31.3539573,1.28169787 31.1984524,1.38867154 31.119196,1.54763819 L31.119196,1.54763819 L31.1011055,1.54763819 L31.0667337,1.3839196 L30.8116583,1.42552764 L31.0667337,2.98492462 L31.3453266,2.93969849 L31.2024121,2.06864322 C31.1499497,1.74663317 31.2539698,1.56844221 31.5226131,1.52592965 C31.641911,1.49897779 31.7665067,1.53797866 31.8491457,1.6281407 C31.9205306,1.71946357 31.9630472,1.83000689 31.9712563,1.94562814 L32.1132663,2.81396985 L32.3918593,2.7678392 L32.2507538,1.89407035 C32.2145729,1.67065327 32.2163819,1.40834171 32.5573869,1.35135678 C32.8070352,1.31065327 32.9662312,1.45537688 33.0177889,1.77015075 L33.159799,2.63849246 L33.438392,2.59236181 L33.438392,2.59688442 Z" id="Path" fill="#FFFFFF"></path>
                        <path d="M27.1772883,3.51407035 C27.1776522,3.60532941 27.1229121,3.68778923 27.0386692,3.72288173 C26.9544264,3.75797424 26.8573336,3.7387624 26.7928032,3.67423199 C26.7282728,3.60970157 26.7090609,3.51260882 26.7441534,3.42836593 C26.7792459,3.34412304 26.8617058,3.28938297 26.9529648,3.28974692 C27.0768542,3.28974692 27.1772883,3.39018095 27.1772883,3.51407035 L27.1772883,3.51407035 Z" id="Path" fill="#FFFFFF"></path>
                    </g>
                </g>
            </g>
        </g>
    </g>
</svg>